<?xml version="1.0" standalone="yes"?><svg xmlns="http://www.w3.org/2000/svg" aria-hidden="true" focusable="false" data-prefix="fas" data-icon="users" class="svg-inline--fa fa-users fa-w-20" role="img" viewBox="0 0 640 512" style="zoom: 1;"><path fill="#8531a5" d="M96,224 c35.3,0 64,-28.7 64,-64 s-28.7,-64 -64,-64 s-64,28.7 -64,64 s28.7,64 64,64 m448,0 c35.3,0 64,-28.7 64,-64 s-28.7,-64 -64,-64 s-64,28.7 -64,64 s28.7,64 64,64 m32,32 h-64 c-17.6,0 -33.5,7.1 -45.1,18.6 c40.3,22.1 68.9,62 75.1,109.4 h66 c17.7,0 32,-14.3 32,-32 v-32 c0,-35.3 -28.7,-64 -64,-64 m-256,0 c61.9,0 112,-50.1 112,-112 S381.9,32 320,32 S208,82.1 208,144 s50.1,112 112,112 m76.8,32 h-8.3 c-20.8,10 -43.9,16 -68.5,16 s-47.6,-6 -68.5,-16 h-8.3 C179.6,288 128,339.6 128,403.2 V432 c0,26.5 21.5,48 48,48 h288 c26.5,0 48,-21.5 48,-48 v-28.8 c0,-63.6 -51.6,-115.2 -115.2,-115.2 m-223.7,-13.4 C161.5,263.1 145.6,256 128,256 H64 c-35.3,0 -64,28.7 -64,64 v32 c0,17.7 14.3,32 32,32 h65.9 c6.3,-47.4 34.9,-87.3 75.2,-109.4 "></path></svg>