<svg height='100px' width='100px'  fill="#000000" xmlns="http://www.w3.org/2000/svg" xmlns:xlink="http://www.w3.org/1999/xlink" version="1.1" x="0px" y="0px" viewBox="0 0 128 128" style="enable-background:new 0 0 128 128;" xml:space="preserve"><g><path d="M53,25c0.7503662,0,1.4443359-0.2193604,2.0443115-0.5787964c0.9068604,1.8410645,2.3768311,3.4248657,4.3365479,4.4457397   C60.8564453,29.6356201,62.4354248,30,63.9916992,30c3.6081543,0,7.0928955-1.9594116,8.8752441-5.3808594   c0.1296387-0.2487183,0.2397461-0.5021362,0.3466797-0.7561035C73.934082,24.5643921,74.9150391,25,76,25   c2.2092285,0,4-1.7908325,4-4c0-1.7459717-1.1256104-3.2150269-2.6853027-3.7608643C77.7471924,16.6001587,78,15.8296509,78,15   c0-2.2091675-1.7907715-4-4-4c-1.3308105,0-2.5014648,0.6567993-3.2286377,1.6565552   c-0.6356201-0.5855103-1.3492432-1.1051636-2.1522217-1.5234985C67.1435547,10.3643799,65.5645752,9.999939,64.0083008,10   c-2.0212402,0.000061-3.9919434,0.6345825-5.6582031,1.7769165C57.6890869,11.2938843,56.8814697,11,56,11   c-2.2092285,0-4,1.7908325-4,4c0,0.7496338,0.2191162,1.4428711,0.5778809,2.0425415C50.5699463,17.2561646,49,18.9354248,49,21   C49,23.2091675,50.7907715,25,53,25z M71.0931396,23.6951294C69.7098389,26.3504639,66.9887695,28,63.9916992,28   c-1.2913818,0-2.5317383-0.3051147-3.6868896-0.9068604c-1.8084717-0.9420776-3.0985107-2.4863281-3.7701416-4.2579346   c-0.2529297-0.6669922-0.4196777-1.3643799-0.4887695-2.0769653c0.3156738-0.0452881,0.6174316-0.1072388,0.9118652-0.1774292   c3.8171387-0.9104004,5.8734131-3.8150024,6.947998-6.243042c0.5214844,1.5800781,1.6801758,3.0778809,4.2299805,3.0778809   c0,0-0.2202148,3.758606,3.6025391,4.5789795C71.5893555,22.5726929,71.3804932,23.1435547,71.0931396,23.6951294z"></path><path d="M33.6953125,47.0935669c3.9177246-2.0408936,5.4390869-6.8712158,3.3981934-10.7888794   c-2.0407715-3.9176636-6.8710938-5.4390869-10.7888184-3.3982544c-3.9177246,2.0408936-5.4390869,6.8712158-3.3981934,10.7888794   C24.9472656,47.6129761,29.7775879,49.1343994,33.6953125,47.0935669z"></path><path d="M20.8310547,106.7880859l3.9801025,0.6798096l0.9967041,0.1702881l0.9963379,0.170166l3.1516113-9.6227417L34.9291992,83   h-1.0522461H32.824585l-3.6790771,11.2333984c-1.5793457-3.7688599-5.2907715-6.4542847-9.677124-6.4542847   c-5.9439697,0-10.7025146,4.9301758-10.4920654,10.8704224l0.2730713,7.7045898   C9.4400635,111.7357788,13.8581543,116,19.2431641,116h1.6391602l0.0026855,0.0231934   C20.9245605,116.0184326,20.9592285,116,21,116h3.7763672h3.9609375h4.296875c0.5517578,0,1-0.4487305,1-1   c0-0.3440552-0.0484619-0.6759033-0.1193848-1c-0.3981934-1.8197632-1.8476562-3.263916-3.751709-3.5888672l-1.017334-0.1737671   l-2.9709473-0.5074463l-0.9963379-0.170166l-0.996582-0.1702881l-3.6867676-0.6296997   c-0.1658936-0.0283203-0.3249512-0.0730591-0.4794922-0.1264648C18.8236084,108.2212524,18,107.1012573,18,105.8027344V100   c0-0.5522461,0.4472656-1,1-1s1,0.4477539,1,1v5.8027344C20,106.2915039,20.3496094,106.7060547,20.8310547,106.7880859z"></path><path d="M10.925293,72.8353882c0.3288574,0.0921631,0.6689453,0.1553345,1.026123,0.159729   C11.9680176,72.9953003,11.9833984,73,12,73c0.4230957,0,0.8227539-0.0834961,1.2055664-0.2052002   c-1.4321289,2.3191528-1.6499023,5.3075562-0.2990723,7.9005127C14.3323975,83.4324341,17.1201172,85,20.0067139,85   c1.2449951,0,2.5080566-0.2915039,3.6885986-0.9064941C25.0961914,83.3637695,26.184082,82.2738037,26.9188232,81   c1.3201904-2.2885742,1.4857178-5.1785278,0.1746826-7.6953125C25.6676025,70.5675659,22.8798828,69,19.9932861,69   c-0.3184814,0-0.6380615,0.0203857-0.9573975,0.059082c-0.9283447,0.1125488-1.8526611,0.3897705-2.7312012,0.8473511   c-0.1767578,0.0921021-0.3430176,0.196106-0.5100098,0.2992554C15.9165039,69.822937,16,69.4230957,16,69   c0-0.0166016-0.0046387-0.0319824-0.0048828-0.0485229c-0.0043945-0.355896-0.0671387-0.6947021-0.1585693-1.0223999   C15.3659668,66.2435913,13.8356934,65,12,65c-2.2092285,0-4,1.7908325-4,4C8,70.8342285,9.2416992,72.3634644,10.925293,72.8353882   z"></path><path d="M96.3046875,47.0935669c3.9177246,2.0408325,8.7480469,0.5194092,10.7888184-3.3982544   c0.5441895-1.0445557,0.8276367-2.1536865,0.8874512-3.2578125c0.5581055,0.2993774,1.1973877,0.5733643,1.9318848,0.7893066   c2.4848633,0.7307129,5.036377-0.338623,6.8156738-1.4354858c0.7080078-0.4364014,0.5742188-1.479126-0.2009277-1.7800293   c-2.1394043-0.8304443-4.2307129-3.4082642-5.4577637-5.4489746c-1.9208984-3.1946411-5.121582-1.5340576-5.121582-1.5340576   c-1.092041,0.5075684-1.6334229,1.2750854-1.8664551,2.1049194c-0.128418-0.0761719-0.2524414-0.1569214-0.3864746-0.2267456   c-3.9177246-2.0408325-8.7480469-0.5194092-10.7888184,3.3982544   C90.8656006,40.2223511,92.3869629,45.0526733,96.3046875,47.0935669z"></path><path d="M113.6953125,69.9064331c-1.0672607-0.5559082-2.2016602-0.8344727-3.3294678-0.8852539   C110.2460938,69.0158081,110.1262207,69,110.0067139,69c-2.8865967,0.000061-5.6743164,1.5675659-7.1002197,4.3046875   C101.595459,75.8214722,101.7609863,78.7114258,103.0811768,81c0.7347412,1.2738037,1.8226318,2.3637695,3.2235107,3.0935059   C107.4852295,84.7084961,108.748291,85,109.9932861,85c2.8865967,0,5.6743164-1.5675659,7.1002197-4.3046875   C119.1343994,76.7776489,117.612915,71.9473267,113.6953125,69.9064331z"></path><path d="M109.9321289,87.7791138c-4.5462646,0-8.3778076,2.8795776-9.850708,6.8659668L96.2675781,83h-1.0517578h-1.0527344   l5.3105469,16.215271l2.8624268,8.7399292l0.9970703-0.1702881l0.9959717-0.170166l4.8398438-0.8266602   C109.6503906,106.7060547,110,106.2915039,110,105.8027344V100c0-0.5522461,0.4472656-1,1-1s1,0.4477539,1,1v5.8027344   c0,1.2985229-0.8236084,2.4185181-2.015625,2.8305664c-0.154541,0.0534058-0.3135986,0.0981445-0.4794922,0.1264648   l-4.5463867,0.7765503l-0.9960938,0.170166l-0.9970703,0.1702881l-2.7033691,0.461731l-0.4250488,0.0726318   c-1.9040527,0.3249512-3.3535156,1.769104-3.751709,3.5888672c-0.0709229,0.3240967-0.1193848,0.6559448-0.1193848,1   c0,0.5512695,0.4482422,1,1,1h3.6973877h3.6525879H109c0.0407715,0,0.0754395,0.0184326,0.1149902,0.0231934L109.1176758,116   h1.0397949c5.3850098,0,9.8029785-4.2642212,9.9936523-9.645874l0.2730713-7.7045898   C120.6347656,92.7092896,115.8762207,87.7791138,109.9321289,87.7791138z"></path><path d="M82.4364014,65h5.831543l1.8754883,5.7264404l0.9749756,2.9772949l0.9978027-0.1678467l0.9968262-0.1677246   l1.442627-0.2426758c0.5498047-0.0927734,1.0605469,0.2763672,1.1523438,0.8203125   c0.0852051,0.5056152-0.232666,0.9713135-0.7131348,1.1113281c-0.0373535,0.0108643-0.0678711,0.0343628-0.1071777,0.0410156   l-1.1450195,0.192627l-0.9968262,0.1676636l-0.9978027,0.1678467l-1.2663574,0.2130737l-4.458252,0.75   C84.3515625,76.8701172,83.1386719,78.3046875,83.1386719,80c0,0.5512695,0.4482422,1,1,1h6.6845703h2.6848145h1.0527344h1.0517578   h1.0986328H97h3.8461914c-1.1662598-2.6759033-1.1640625-5.8348999,0.286499-8.6193237   c1.7290039-3.3188477,5.1293945-5.3805542,8.8741455-5.3806763c0,0,0,0,0.0001221,0   c0.1419678,0,0.2830811,0.0197144,0.4249268,0.0258789l0.1774902-5.3625488   c0.1968994-5.9520264-4.574707-10.8842163-10.5300293-10.8842163c-6.0925293,0-10.9150391,5.1522827-10.5126953,11.2315063   l0.1057129,1.5991821C89.3051758,63.2392578,88.814209,63,88.2679443,63h-5.9542236L82.375,64L82.4364014,65z"></path><path d="M94.0549316,114H35.9450684c0.0494385,0.3279419,0.0891113,0.6592407,0.0891113,1   c0,0.352356-0.0722656,0.6856689-0.1843262,1h58.300293c-0.1120605-0.3143311-0.1843262-0.647644-0.1843262-1   C93.9658203,114.6592407,94.0054932,114.3279419,94.0549316,114z"></path><path d="M45.2626953,81c0.5517578,0,1-0.4487305,1-1c0-1.6953125-1.2138672-3.1298828-2.8857422-3.4106445l-4.4581299-0.75   l-1.5585938-0.262207l-0.9974365-0.1677246l-0.9973145-0.1677856l-0.8527832-0.1434937   c-0.0549316-0.0092163-0.0983887-0.0397949-0.1494141-0.057251c-0.4553223-0.1557007-0.753418-0.6050415-0.6708984-1.0950928   c0.0908203-0.5439453,0.5976562-0.9125977,1.1523438-0.8203125l1.1503906,0.1935425l0.9974365,0.1677856l0.9973145,0.1677856   l1.3453369-4.1079102L40.8243408,65h5.2840576l0.0614014-1l0.0614014-1h-5.4068604   c-0.3946533,0-0.7618408,0.1275635-1.0777588,0.331543l0.0874023-1.3209229   c0.4023438-6.0792236-4.420166-11.2315063-10.5126953-11.2315063c-5.9553223,0-10.7270508,4.9321899-10.5300293,10.8842163   l0.1787109,5.3990479C19.3100586,67.0267944,19.6513672,67,19.9932861,67c3.7446289,0,7.1450195,2.0617676,8.8740234,5.3806763   C30.3178711,75.1651001,30.3200684,78.3240967,29.1538086,81H32h0.3395996h1.1400146h1.0523682h1.0522461h2.993042H45.2626953z"></path><path d="M50.7167969,69.3051758c1.3427734,0,2.4511719-0.9448242,2.6601562-2.246582L53.7075195,65l0.1206055-0.7516479   c0-0.0002441,0-0.0005493,0-0.0007935L53.8554688,64l0.1105957-1L55,53.6513672   c0.0585938-0.5302734-0.0253906-1.0683594-0.2441406-1.5551758L54.65625,51.8725586   c-0.5771484-1.2915039-0.8710938-2.6660156-0.8710938-4.0834961V45c0-0.5522461,0.4472656-1,1-1s1,0.4477539,1,1v2.7890625   c0,1.1342773,0.234375,2.2338867,0.6982422,3.2680664l0.0996094,0.2236328   c0.3623047,0.8095703,0.5029297,1.7060547,0.4052734,2.590332L55.9787598,63h16.5095215l-1.0087891-9.1289062   c-0.0986328-0.8828125,0.0419922-1.7792969,0.4052734-2.5922852l0.1005859-0.2226562   c0.4628906-1.0332031,0.6972656-2.1328125,0.6972656-3.2670898V45c0-0.5522461,0.4472656-1,1-1s1,0.4477539,1,1v2.7890625   c0,1.4174805-0.2939453,2.7919922-0.8720703,4.0854492l-0.1005859,0.2226562   c-0.2177734,0.4863281-0.3017578,1.0234375-0.2421875,1.5532227L74.5008545,63l0.0665283,0.6025391   c0.0338135,0.0767212,0.0700684,0.1526489,0.0839844,0.2387695L74.6768799,64l0.1605225,1l0.3305664,2.0581055   c0.2089844,1.3022461,1.3183594,2.2470703,2.6367188,2.2470703c0.7773438,0,1.4765625-0.3027344,1.9921875-0.8530273   c0.515625-0.5498047,0.7724609-1.2666016,0.7236328-2.0185547L80.4326172,65l-0.0612793-1l-0.0614014-1l-1.3040771-21.2666016   c-0.1503906-2.3320312-1.0976562-4.5732422-2.6669922-6.3081055C74.3603516,33.2382812,71.5703125,32,68.6582031,32h-8.7714844   c-2.9121094,0-5.7021484,1.2382812-7.6533203,3.3969727c-1.5966797,1.7641602-2.5439453,4.0053711-2.6933594,6.3393555   L48.2348633,63l-0.0612793,1l-0.0614014,1l-0.0877686,1.4301758c-0.0488281,0.7553711,0.2089844,1.4731445,0.7246094,2.0229492   C49.2646484,69.0024414,49.9638672,69.3051758,50.7167969,69.3051758z"></path></g></svg>