<?xml version="1.0" encoding="utf-8" standalone="yes"?>
<!DOCTYPE svg PUBLIC "-//W3C//DTD SVG 1.1//EN" "http://www.w3.org/Graphics/SVG/1.1/DTD/svg11.dtd">
<svg xmlns="http://www.w3.org/2000/svg" xmlns:xlink="http://www.w3.org/1999/xlink" xmlns:dc="http://purl.org/dc/elements/1.1/" xmlns:cc="http://web.resource.org/cc/" xmlns:rdf="http://www.w3.org/1999/02/22-rdf-syntax-ns#" xmlns:sodipodi="http://sodipodi.sourceforge.net/DTD/sodipodi-0.dtd" xmlns:inkscape="http://www.inkscape.org/namespaces/inkscape" version="1.1" baseProfile="full" width="600px" height="600px" viewBox="0 0 600 600" preserveAspectRatio="xMidYMid meet" id="svg_document" style="zoom: 1;"><!-- Created with macSVG - https://macsvg.org/ - https://github.com/dsward2/macsvg/ --><title id="svg_document_title">Untitled.svg</title><defs id="svg_document_defs"></defs><g id="main_group"><rect height="600px" x="0px" y="0px" id="background_rect" width="600px" fill="#091d22"></rect></g><svg xmlns="http://www.w3.org/2000/svg" viewBox="0 0 1178.09 729.75" id="svg1"><defs><style>.cls-1{fill:#e5e7e8;}.cls-2{fill:#fff;}.cls-3{fill:#fbb34c;}.cls-4{fill:#de8f35;}.cls-5{fill:#000f1d;}.cls-6{fill:#bc27c7;}.cls-7{fill:#8531a5;}.cls-8{fill:#49caee;}.cls-9{fill:#009cc6;}.cls-10{fill:#7cc400;}.cls-11{fill:#3f9a2a;}.cls-12{fill:#db3512;}.cls-13{fill:#c20019;}.cls-14{fill:#192733;}</style></defs><g id="Layer_1" data-name="Layer 1"><rect class="cls-1" x="107.63" y="598.61" width="964.48" height="84.39" rx="42.19"></rect><path class="cls-2" d="M150.68,571.17c-24,0-44.71-12.85-44.71-42.15s20.71-42,44.83-42c11.76,0,23.06,2.92,31.53,10.74a6.37,6.37,0,0,1,1.88,4.32,5.85,5.85,0,0,1-6,6c-2.94,0-5.53-2.22-7.65-3.15-6-4.44-13.06-5.26-19.76-5.26-16.36,0-30,9.23-30,29.43,0,20,13.42,29.65,30.13,29.65,8.82,0,16.59-1.87,23.53-6.54a7.1,7.1,0,0,1,3.76-1.16,6.68,6.68,0,0,1,6.47,6.53,5.31,5.31,0,0,1-2.35,4.44C173.51,569,162.21,571.17,150.68,571.17Z"></path><path class="cls-2" d="M248.07,571.17c-26.12,0-44.71-14.72-44.71-41.92,0-27,18.59-42.15,44.71-42.15,25.89,0,44.71,15.18,44.71,42.15S274,571.17,248.07,571.17Zm0-72.28c-17.17,0-29.88,10.63-29.88,30.36s12.71,30.12,29.88,30.12c16.95,0,29.89-10.74,29.89-30.12C278,509.63,265,498.89,248.07,498.89Z"></path><path class="cls-2" d="M399.39,518.51c0-14.13-6.71-18.33-14.59-18.33-8.95,0-15.42,5.13-15.42,18.33v45.18c0,4-2.59,6.31-6.94,6.31-4,0-6.71-2.34-6.71-6.31V518.51c0-13.2-6.59-18.33-15.41-18.33-8.47,0-14.59,4.78-14.59,18.33v45.18c0,4-2.47,6.31-6.71,6.31s-6.82-2.34-6.82-6.31V518.51c0-24.17,11.76-30.83,28.12-30.83,9.77,0,17.53,3.62,22.24,13.66,4.7-10.39,12.59-13.66,22.35-13.66,16.36,0,28,7.24,28,30.83v45.18c0,4-2.47,6.31-6.83,6.31s-6.7-2.34-6.7-6.31Z"></path><path class="cls-2" d="M528.22,518.51c0-14.13-6.71-18.33-14.59-18.33-8.94,0-15.41,5.13-15.41,18.33v45.18c0,4-2.59,6.31-7,6.31-4,0-6.7-2.34-6.7-6.31V518.51c0-13.2-6.59-18.33-15.42-18.33-8.47,0-14.59,4.78-14.59,18.33v45.18c0,4-2.47,6.31-6.7,6.31s-6.83-2.34-6.83-6.31V518.51c0-24.17,11.77-30.83,28.12-30.83,9.77,0,17.54,3.62,22.24,13.66C496.1,491,504,487.68,513.75,487.68c16.35,0,28,7.24,28,30.83v45.18c0,4-2.47,6.31-6.82,6.31s-6.71-2.34-6.71-6.31Z"></path><path class="cls-2" d="M626.46,494.57c0-4,2.83-6.3,6.71-6.3s6.71,2.33,6.71,6.3v40.75c0,22.18-13.18,35.85-37.42,35.85s-37.41-13.67-37.41-35.85V494.57c0-4,2.94-6.3,6.82-6.3s6.59,2.33,6.59,6.3v40.87c0,16.34,10.35,23.82,24,23.82s24-7.48,24-23.82Z"></path><path class="cls-2" d="M721.53,526.21c0-18.21-9.53-26.27-24-26.27-14.24,0-24,8.06-24,26.27v37.6c0,4.44-2.59,6.19-6.71,6.19s-6.71-1.75-6.71-6.19v-37.6c0-23.82,12.71-38.76,37.42-38.76S735,502.39,735,526.21v37.6c0,4.44-2.83,6.19-6.71,6.19s-6.71-1.75-6.71-6.19Z"></path><path class="cls-2" d="M759.72,494.69c0-3.86,2.82-6.42,6.7-6.42s6.71,2.56,6.71,6.42v68.89a6.71,6.71,0,0,1-13.41,0Z"></path><path class="cls-2" d="M820.31,499.71c-8.71.47-14.36,1.28-23.77,2.45-4.23.47-6.82-2.1-6.94-5.6-.12-3.86,1.88-5.73,5.41-6.31a185,185,0,0,1,64.13,0c3.53.58,5.53,2.45,5.41,6.31-.12,3.5-2.82,5.95-6.94,5.6-9.53-1.17-15.06-2-23.89-2.45v63.87A6.48,6.48,0,0,1,827,570a6.55,6.55,0,0,1-6.71-6.42Z"></path><path class="cls-2" d="M907.85,540.81c-20-2.45-30.71-17.28-30.71-38.18v-8.06c0-3.74,2.82-6.3,6.7-6.3s6.71,2.56,6.71,6.3v8.06c0,17.74,10.24,26.15,24,26.15s24-8.41,24-26.15v-8.06c0-3.74,2.82-6.3,6.7-6.3s6.71,2.56,6.71,6.3v8.06c0,20.9-10.83,35.73-30.71,38.18v22.77a6.55,6.55,0,0,1-6.71,6.42,6.48,6.48,0,0,1-6.7-6.42Z"></path><path class="cls-2" d="M955,563.23a6.68,6.68,0,0,1,7.06-6.89c4.12,0,7.18,2.8,7.18,6.89,0,4.32-3.06,6.89-7.18,6.89S955,567.55,955,563.23Z"></path><path class="cls-2" d="M1025.74,571.17c-26.12,0-44.71-14.72-44.71-41.92,0-27,18.59-42.15,44.71-42.15,25.89,0,44.71,15.18,44.71,42.15S1051.63,571.17,1025.74,571.17Zm0-72.28c-17.18,0-29.88,10.63-29.88,30.36s12.7,30.12,29.88,30.12c16.94,0,29.89-10.74,29.89-30.12C1055.63,509.63,1042.68,498.89,1025.74,498.89Z"></path><path class="cls-3" d="M786.38,213.13l4.55,4.18L789.79,213c-4.14-10.17-16.07-34.48-43.95-61.54s-41.65-21.27-46.23-14.81l-3.85.43a35.43,35.43,0,0,1-11.82-7.81,40.52,40.52,0,0,1-8.74-14.17c-.15-.72-3.48-7.21-9.65-5.09s-12.94,5.45-15.87,17.18a1.2,1.2,0,0,1,.06.68c-.68,3,.73,6,2.26,8.53,4.09,6.72,10.22,12.21,16,17.43,3.78,3.4,7.84,6.6,11.57,10.11,1.32,1.19,2.44,2.26,3.27,3.18,7.27,8,8.85,10.17,10.61,14.93,0,0-7.88,5.21-14.7,4.78s-18.38-1.92-29-8.88-14.92-10.12-15.8-10.69-3.06-2-3.78,2.67-.73,9.23,0,10.45,4.2,5,10.85,8.37,22.77,10.08,28.5,15.19,13.81,15.43,24.15,15.2l1.5-.07c8,11.83,30.14,46.75,23.25,59.08a19.29,19.29,0,0,1-4.77,5.6l6,12.84-33.38,54.85c23.06-2.07,46.78-6.86,65.48-19.45,27.89-18.78,27.48-49.86,19.74-79-7-26.31-26.81-53.9-33.18-62.32a55.2,55.2,0,0,1,13.11,2.13C765.85,196.85,779.33,207.09,786.38,213.13Z"></path><path class="cls-3" d="M795.23,267.61s-11.57-12.41-18-18.5a42.37,42.37,0,0,0-9.21-6.6,173.21,173.21,0,0,0-11.13-23.41l-.17-.51s13.48,3.69,22.77,15.1S795.39,260.66,795.23,267.61Zm-26.49,48.76c-.06-.7-.15-1.39-.24-2.08a51.46,51.46,0,0,1-10.85,13.08c1.83,8.95,4.77,25.85,4.77,25.85C766.5,347.59,769.92,331,768.74,316.37Zm14.65-33.88a44.62,44.62,0,0,0-8.07-9.54,85.47,85.47,0,0,1,.07,20.15c1,1.07,2.05,2.2,3.07,3.45,5.57,6.86,16.16,21.61,16.16,21.61C795.67,311.28,791.14,295,783.39,282.49Z"></path><path class="cls-4" d="M795.23,267.61s-11.57-12.41-18-18.5a42.37,42.37,0,0,0-9.21-6.6c-1.78-4-4.63-11.91-4.63-11.91S782.46,240.53,795.23,267.61ZM776.87,284.2c0,3.06-.87,4-1.48,8.9,1,1.07,2.05,2.2,3.07,3.45,5.57,6.86,16.16,21.61,16.16,21.61C791.68,303.15,776.88,283.18,776.87,284.2Zm-12.94,44.11a52,52,0,0,0,5-3.18,79.78,79.78,0,0,0-.19-8.76c-.06-.7-.15-1.39-.24-2.08a51.46,51.46,0,0,1-10.85,13.08c1.83,8.95,4.77,25.85,4.77,25.85a14.39,14.39,0,0,0,.89-1.44C763.5,346.53,763.88,335.17,763.93,328.31Z"></path><path class="cls-2" d="M651.07,153.58a28,28,0,0,1,1.1-15.4c1.31,1.74,2.72,3.33,4,4.72.66.75,1.34,1.48,2,2.21A20.84,20.84,0,0,0,651.07,153.58Zm18.16,2c-2-1.74-3.93-3.5-5.85-5.3a28.18,28.18,0,0,0-.37,13.11A20.34,20.34,0,0,1,669.23,155.62Zm7.21,15.47a18.62,18.62,0,0,1,3.87-5.66c-1.36-1.32-2.79-2.57-4.22-3.82A28.64,28.64,0,0,0,676.44,171.09Z"></path><path class="cls-2" d="M706.34,167.35c3.08,2,7.33,2,10.89,1-.63-1.09-1.28-2.17-2-3.2a36.61,36.61,0,0,0-6.62-7.11,32.06,32.06,0,0,0-5.9-3.83c-.4-.2-.7-.34-1-.45C701.23,158.62,702.12,164.63,706.34,167.35Z"></path><path class="cls-2" d="M663.23,124s6.66-.7,7.56,2.16-1.7,3.18-3.7,1.32S667,125.22,663.23,124Z"></path><path class="cls-4" d="M631.1,179.73c.48.8,3.64,4.47,10.34,7.9,1.71.88,4,2,6.73,3.22,7.88,3.68,17.69,8.26,22.08,12.18,1.07,1,2.22,2.09,3.44,3.29,5.32,5.24,11.94,11.77,19.85,11.59a43.86,43.86,0,0,0,5.86-.44h0l.75-.2c1.15-.28,2.23-.58,3.23-.91,4.82-1.57,7.93-3.67,9.25-6.26a20.81,20.81,0,0,0,1.65-4.44l-4.77-6.51c-13.14,15.16-26.54,7.26-36.47-.81-3.75-3.05-21.89-9.08-31.57-15.57-6.66-4.47-9-9.19-9.83-11.71-.17-.52-.27-.94-.34-1.25l-.06.35c-.74,4.84-.57,8.4-.25,9.4A.51.51,0,0,0,631.1,179.73Z"></path><path class="cls-4" d="M749,279.19c-3.11-29-31.2-66.91-34.07-70.87-3.64,7.43-17.16,11-19.63,11l5.22,8.85,17-5.51,7.5,10.45-4.24,2.26,5.39,1.86,7.49,18.85-4.6,2.08,5.39,2.16a62.29,62.29,0,0,1,4.21,22l-5.74,1.27,5.32,2.86s-4.24,17.3-16.28,24.72l-7.71-5.69,3,6.54a58.86,58.86,0,0,1-9.61,4.28L699.87,329c2.68-.32,4.87-.56,6.58-.91,6.56-1.32,15.18-4.8,23.75-11,.45-.33.88.38,1.32,0,9.83-7.59,17.8-19.9,16.5-36.78C748,279.86,749.07,279.69,749,279.19Z"></path><path class="cls-4" d="M713.64,283.74l3.56,7.64c5.54-8.83,3-20.89,1.79-25.11,1,4.77,1,8.94-.58,11.86A19.46,19.46,0,0,1,713.64,283.74Z"></path><path class="cls-4" d="M751.72,191.61c6.61,1.85,24.3,12,28.13,14.72-8.45-12.13-36.11-24.89-45.91-26.75a28.38,28.38,0,0,1-8.15-3.37c-6.82.39-28.68.72-32.42-10.79-1-3-.71-6.83,1.38-11.67,0,0-6.11-.77-9.88-8.16s-7.49-24.08-16.18-25.39-12.45,3-12.45,3,6.93,1.19,9.47,7.94c.07.18.13.36.19.53a28.17,28.17,0,0,1,1,5.92,33.34,33.34,0,0,0,1.41,7.31c1.39,4.26,4.21,9.52,10.38,16.48l0,0c.58.52,1.15,1,1.71,1.57,1.48,1.34,2.55,2.38,3.35,3.26,7.44,8.17,9.07,10.47,10.88,15.39l.18.47c2,0,10.05.14,12.46,4.77a9.5,9.5,0,0,1,12.64-.32,43,43,0,0,1,4,3.78c2.61,2.71,5.83,6.42,9.23,10.71,8.34,10.55,17.69,24.64,21.42,36.12.08.24.15.48.23.72,5.86,19.11,14.1,38.12,7.2,60.34-6.16,19.84-26.93,38.65-73.76,49.88l-1.35,2.22c13.35-1.24,26.86-3.4,39.44-7.49A98.07,98.07,0,0,0,751,331.14c22.76-15.32,29.43-40.93,19.61-77.87-.45-1.7-1-3.41-1.51-5.11-7-21.55-21.64-42.94-29-53.12l-3.68-5.19,1.61,0A53.17,53.17,0,0,1,751.72,191.61ZM671,129.52a2.46,2.46,0,0,1-.59.28,4.59,4.59,0,0,1-4.31-1.38,5.23,5.23,0,0,1-1.46-2.11c-.13-.34-.21-.53-1.92-1.1l-5.8-1.9,6.07-.64a20,20,0,0,1,3.72,0c2.92.3,4.67,1.33,5.23,3v0C672.66,128.14,671.5,129.18,671,129.52Z"></path><path class="cls-4" d="M734.08,157.15a7.23,7.23,0,0,1-2.2,3.82c-1.57,1.16-8.65,2.27-10.38-3.05a6.7,6.7,0,0,1-.26-1.07c-1.09-6.54,6.16-6.48,6.16-6.48s-4.41-5.11-14-7.15c-7.78-1.65-10.15,6.44-10.76,9.58l.58.28a33.53,33.53,0,0,1,6.15,4,37.8,37.8,0,0,1,6.87,7.38c.74,1,1.4,2.11,2,3.14a43.18,43.18,0,0,0,16.45,9.46c10.23,2.94,34.87,14.23,48.08,30.67,2.39,1.81,2.86,3.08,4.52,4.5l0,0,.07.07C768.5,180.1,734.08,157.15,734.08,157.15Z"></path><path class="cls-5" d="M794.27,268.51l2.19,2.35.08-3.22c.16-7.11-6.23-22.78-16-34.78-8.91-10.94-21.35-14.92-23.21-15.47A269.82,269.82,0,0,0,740.65,192a58.6,58.6,0,0,1,10.38,2c14.32,4,27.76,14.3,34.46,20l7.86,7.21-2.3-8.65,0-.16c-3.85-9.46-15.87-34.44-44.25-62-10.27-10-25.14-21.61-37.57-20.48a14.32,14.32,0,0,0-10.28,5.38l-2.94.32a33.78,33.78,0,0,1-11.06-7.37,40,40,0,0,1-8.42-13.53,10.79,10.79,0,0,0-4.6-5.5,8,8,0,0,0-6.75-.57c-6.93,2.38-13.75,6.21-16.72,18.1l-.11.43.15.34c-.78,3.54.89,6.9,2.43,9.44l.2.3-.13.37a29.34,29.34,0,0,0-1.17,16.11l.91,4.41,1.6-4.21a19.8,19.8,0,0,1,6.12-7.48c1.19,1.23,2.42,2.42,3.67,3.59a29.36,29.36,0,0,0-.35,13.55l.9,4.4,1.6-4.2a19.36,19.36,0,0,1,5.41-6.92l2.48,2.11,2.68,2.3v.05a30.07,30.07,0,0,0,.37,9.91l.9,4.41,1.61-4.21a17.56,17.56,0,0,1,3.13-4.7c.42.41.79.79,1.1,1.13,6.66,7.32,8.41,9.61,10,13.5-2.18,1.28-8,4.34-13,4-11.11-.7-20.66-3.61-28.4-8.66-8.37-5.47-12.81-8.61-14.71-10l-1.08-.75a3.67,3.67,0,0,0-3.46-.63c-1.21.54-2,1.91-2.33,4.2-.5,3.27-1,9.33.17,11.32.74,1.23,4.22,5.2,11.38,8.87,1.75.89,4.09,2,6.8,3.25,7.31,3.42,17.32,8.09,21.41,11.75,1,.91,2.15,2,3.34,3.19,5.37,5.29,12.68,12.51,21.72,12.33h.52c12.58,18.66,20.52,34.05,23.2,44.66l-.13.05s.29.85.63,2.21c.85,4.4.66,7.84-.64,10.17a18.18,18.18,0,0,1-4.21,5l1.12,2.42a20.65,20.65,0,0,0,5.1-5.7,24.1,24.1,0,0,1-2.42,10.12c-.1.21-.22.4-.34.6l1.32,2.83a21.88,21.88,0,0,0,1.36-2.24,23.62,23.62,0,0,0,1.66-4.26h0l25.94-4.43c.83,18-9.24,28.86-15.71,34a2.06,2.06,0,0,0-.75-.1l-15-12.09L714,305.87l13.95,11.23c-7,4.82-14.86,8.33-21.72,9.72-1.41.29-3.21.5-5.3.75l-.15,0L699,330.44l2.2-.27c2.15-.26,4-.48,5.51-.78,4.48-.91,13.5-3.54,23.89-11a1.74,1.74,0,0,0,1.72-.25c7-5.37,18.36-17.33,17-37.37a1.84,1.84,0,0,0,1-1.74c-2.85-26.54-25.53-58.67-33-69.23-.77-1.08-1.37-1.94-1.76-2.52l-1.45-2.14-.87,2.43c-1.59,4.45-6.44,7.91-13.65,9.75h0a44.18,44.18,0,0,1-5.93.46c-7.9.2-14.51-6.34-19.83-11.58-1.21-1.2-2.36-2.32-3.43-3.28-4.38-3.91-14.18-8.49-22-12.17-2.69-1.25-5-2.34-6.72-3.21-6.69-3.43-9.85-7.1-10.33-7.89-.37-.63-.63-4.36.18-9.57.29-1.93.8-2.21.8-2.21s.24-.05,1,.43l1,.7c1.91,1.35,6.38,4.5,14.79,10,8.12,5.3,18.1,8.36,29.67,9.08,7.15.44,15.16-4.76,15.5-5l.87-.57-.36-1c-1.81-4.91-3.44-7.2-10.87-15.36-.8-.89-1.87-1.92-3.34-3.26-2.16-2-4.45-4-6.67-5.86-1.64-1.39-3.32-2.82-4.93-4.26l-.12-.12c-5.75-5.17-11.69-10.51-15.66-17-1.29-2.13-2.7-4.91-2.1-7.56a2.36,2.36,0,0,0,0-1c2.85-10.93,9.2-14,14.94-15.92a5.32,5.32,0,0,1,4.33.21,8.64,8.64,0,0,1,3.61,3.9,41.27,41.27,0,0,0,9.08,14.8,36.6,36.6,0,0,0,12.27,8.12l.31.14,2.21-.25c-.89,3.47-2,10.74,2.58,16.17-.22,3.11-.14,10.65,5.27,14.13h0a12.91,12.91,0,0,0,7,1.85,19.52,19.52,0,0,0,4.21-.49A45.23,45.23,0,0,0,734,179.52c8.91,2.56,31.83,11.74,45.58,26.53-7.38-5.43-17.34-11.57-27.82-14.51a55.24,55.24,0,0,0-13.8-2.28l-2.7-.06,1.63,2.16a261.62,261.62,0,0,1,21.65,33.57l.32.6c.26.49.52,1,.77,1.49s.45.87.67,1.3l.57,1.13c.37.74.73,1.47,1.08,2.2,0,.1.09.2.14.3,1.81,3.78,3.39,7.47,4.75,11l.17.46h0c1.24,3.3,2.32,6.61,3.19,9.89a139.93,139.93,0,0,1,3.68,18.41l.15,1.37a83.94,83.94,0,0,1,.07,19.84l-.07.61v0a54.57,54.57,0,0,1-5.46,18l-1.2,2.08a50.44,50.44,0,0,1-10.58,12.75l-.58.5v0a58.73,58.73,0,0,1-5.23,4c-18.23,12.27-41.29,17.05-63.91,19.16l-1.69,2.77c23.57-2,47.83-6.82,67.06-19.76q2.29-1.53,4.36-3.2c1.81,9.15,4.29,23.44,4.32,23.6l.53,3.05,1.82-2.51c4.17-5.76,7.8-22.29,6.56-37.72,0-.52-.11-1-.17-1.54a55.47,55.47,0,0,0,6.48-18.65c.38.44.75.87,1.1,1.3,5.47,6.75,16,21.39,16.1,21.54l1.87,2.6.49-3.17c1.08-7-3.25-23.39-11.41-36.54a45.51,45.51,0,0,0-7.91-9.47,141.49,141.49,0,0,0-3.87-19.69c-.63-2.37-1.37-4.76-2.2-7.15a39.74,39.74,0,0,1,5.84,4.56C782.65,256.05,794.16,268.38,794.27,268.51Zm-46.61,10.27a2.71,2.71,0,0,0-.51.43v-.08l-25.67,4.38c1.31-7.53-.46-15-1.31-17.95-.21-.94-.46-1.89-.74-2.87,4.06-1.11,18.29-7.94,20.73-9.12C743.84,262,746.7,270.65,747.66,278.78Zm-8.58-27.6c-4.92,2.38-17.34,8.23-20.45,9a123.08,123.08,0,0,0-8.57-18.93,173.78,173.78,0,0,0,18.55-9.63A203.49,203.49,0,0,1,739.08,251.18Zm-39-31.26.21,0c6.94-1.77,12-5,14.45-9.23l.49.69c2.63,3.72,7.17,10.16,12,18.07A174.37,174.37,0,0,1,708.79,239c-3.81-6.81-7.95-13.33-11.54-18.71C698.27,220.17,699.2,220.06,700.05,219.92Zm-22.87-55.61,1.31,1.19a19.69,19.69,0,0,0-1.27,1.61A26.2,26.2,0,0,1,677.18,164.31Zm-13-11.49c1,.87,2,1.78,3.08,2.78a24.34,24.34,0,0,0-3.45,3.86A26.79,26.79,0,0,1,664.15,152.82Zm-11.47-11.9c.89,1.08,1.76,2.06,2.46,2.85.35.4.71.79,1.07,1.19a24.59,24.59,0,0,0-4.37,4.64A26.48,26.48,0,0,1,652.68,140.92Zm54.37,25.33h0c-3.64-2.34-4.18-7.37-4.13-10.42a31.34,31.34,0,0,1,4.84,3.26,35.09,35.09,0,0,1,6.39,6.85c.35.5.69,1,1,1.53A11.84,11.84,0,0,1,707.05,166.25ZM734.7,177a43.06,43.06,0,0,1-16.44-9.46c-.6-1-1.25-2.1-2-3.13a38.26,38.26,0,0,0-6.87-7.36,32.89,32.89,0,0,0-6.14-4c-.36-.18-.64-.31-.89-.42-4.68-5.63-2-14.11-1.61-15.39a11.69,11.69,0,0,1,8.65-4.63c6.32-.59,17.61,2.37,35.51,19.75,27.85,27,39.71,51.49,43.58,60.93l-.63-.58,0,0C775.81,192.48,745.4,180.08,734.7,177Zm28.37,172.32c-.94-5.27-2.69-15-4-21.42a52.77,52.77,0,0,0,8.47-9.53C768.19,330.23,766,342.67,763.07,349.33ZM777,276.39a42.33,42.33,0,0,1,5.29,6.79c6.51,10.5,10.58,23.41,11.12,31.06-3.44-4.73-10-13.64-13.92-18.51-.79-1-1.64-1.94-2.67-3A84.76,84.76,0,0,0,777,276.39Zm-7.9-34.8c-.64-1.67-1.32-3.32-2-5a1,1,0,0,0,0-.1l-1-2.19-.42-.91c-.2-.45-.41-.89-.61-1.33l-.65-1.37L764,230q-2.17-4.47-4.72-9.11c4.38,1.74,12.85,5.85,19.2,13.65,7.81,9.58,13.5,21.85,15,29.37-3.82-4-10.88-11.46-15.36-15.72A43.11,43.11,0,0,0,769.09,241.59Z"></path><path class="cls-6" d="M746.73,280.88 c-3.89,-5.18 -9.18,-10.62 -21.25,-9.79 a1.06,1.06 0 0 1 -.62,.27 c-3.07,.28 -5.5,2.56 -7.41,4.78 c-5.14,6 -8.46,13.5 -11.63,20.63 c-2.07,4.64 -3.86,9.5 -6,14.13 c-.73,1.62 -1.4,3 -2,4.09 c-5.35,9.38 -6.95,11.56 -10.93,14.71 c0,0 -7.39,-5.89 -9.08,-12.51 s-3.86,-18.07 -.53,-30.35 s5,-17.32 5.29,-18.33 s.92,-3.52 -3.72,-2.77 s-9,2.15 -9.93,3.23 s-3.43,5.53 -4.61,12.91 s-2.55,24.77 -5.64,31.79 s-10.41,17.9 -7,27.67 c.18,.52 .36,.93 .53,1.4 c-8.79,11.23 -35.15,43.11 -49,40.37 a17.78,17.78 0 0 1 -3,-.89 l-8.09,7.1 l-70.51,-19 c9.35,22.89 21.66,46.13 40.75,61.07 c26.47,20.72 55.9,10.73 81.21,-5.64 c22.86,-14.78 43,-42.15 49,-50.81 a55.25,55.25 0 0 1 2,13.12 c.61,15 -5,31 -8.52,39.57 l-2.57,5.62 l3.76,-2.43 c8.4,-7.08 27.83,-25.94 45,-60.81 s7.36,-46.18 -.21,-48.55 L730.32,318 a35.49,35.49 0 0 1 3.78,-13.66 a40.67,40.67 0 0 1 10.77,-12.69 C745.51,291.26 750.65,286.09 746.73,280.88 "></path><path class="cls-6" d="M636.89,452.92s8.23-14.84,12.05-22.81a42,42,0,0,0,3.43-10.79,174.55,174.55,0,0,0,18.82-17.82l.44-.32s.65,13.95-7.33,26.31S643.55,450.92,636.89,452.92Zm-54.56-10.13c.66-.27,1.29-.57,1.91-.87a51.3,51.3,0,0,1-15.79-6.28c-7.94,4.51-23.11,12.53-23.11,12.53C552,450.31,568.75,448.45,582.33,442.79Zm36.75,3.47a44.33,44.33,0,0,0,6.59-10.63,85.21,85.21,0,0,1-19.15,6.3c-.7,1.3-1.45,2.63-2.33,4-4.8,7.41-15.56,22-15.56,22C595.5,466.83,609.59,457.49,619.08,446.26Z"></path><path class="cls-7" d="M636.89,452.92s8.23-14.84,12.05-22.81a42,42,0,0,0,3.43-10.79c3.29-2.95,9.89-8.09,9.89-8.09S658.71,432.41,636.89,452.92Zm-21.45-12.34c-2.92.91-4.07.42-8.92,1.35-.7,1.3-1.45,2.63-2.33,4-4.8,7.41-15.56,22-15.56,22C602,460.53,616.42,440.28,615.44,440.58Zm-46,1.33a54.29,54.29,0,0,0,4.57,3.77,78.4,78.4,0,0,0,8.27-2.89c.66-.27,1.29-.57,1.91-.87a51.3,51.3,0,0,1-15.79-6.28c-7.94,4.51-23.11,12.53-23.11,12.53a12.89,12.89,0,0,0,1.65.4C552,447.13,563,444,569.49,441.91Z"></path><path class="cls-2" d="M700.8,280.58a28,28,0,0,1,15-3.71c-1.25,1.78-2.34,3.61-3.27,5.21-.51.86-1,1.73-1.48,2.61A20.91,20.91,0,0,0,700.8,280.58Zm3.67,17.9c1-2.42,2.11-4.82,3.24-7.2a28.16,28.16,0,0,0-12.59,3.7A20.32,20.32,0,0,1,704.47,298.48ZM692,310.12a18.61,18.61,0,0,1,6.58,1.93c.83-1.7,1.58-3.45,2.32-5.19A28.4,28.4,0,0,0,692,310.12Z"></path><path class="cls-2" d="M704.78,337.4c-.93,3.54.41,7.57,2.39,10.67.84-.94,1.66-1.89,2.41-2.9a36.45,36.45,0,0,0,4.72-8.5,32.07,32.07,0,0,0,1.82-6.8c.07-.43.11-.76.13-1.05C711.51,329.84,706.06,332.55,704.78,337.4Z"></path><path class="cls-2" d="M732.69,283s2.73,6.12.28,7.86-3.54-.64-2.4-3.12S732.68,286.92,732.69,283Z"></path><path class="cls-5" d="M731.47,292.76a3.87,3.87,0,0,0,2.26-.84c3.16-2.24.69-8.27.16-9.45l-2.48-5.57,0,6.1c0,1.79-.19,1.94-.45,2.16a5.07,5.07,0,0,0-1.55,2c-.92,2-.74,4,.46,5A2.52,2.52,0,0,0,731.47,292.76Zm.29-4.47a2.57,2.57,0,0,1,.83-1.1c.19,1.21.13,2.24-.37,2.6a3.6,3.6,0,0,1-.7.38A2.44,2.44,0,0,1,731.76,288.29Z"></path><path class="cls-7" d="M655,346.28l0,0c.12.16.25.38.42.66.62,1,1.24,1.93,1.86,2.78,3,4.1,5.94,6.41,8.81,6.86a20.05,20.05,0,0,0,4.74.2l4.72-6.54c-18.48-7.81-15.11-23-10.5-34.94,1.74-4.51,1.87-23.62,5.05-34.84,2.19-7.71,6-11.41,8.1-13a8.74,8.74,0,0,1,1.09-.71l-.36.05c-4.83.79-8.17,2.05-9,2.66l-.16.13c-.61.71-3.12,4.85-4.31,12.28-.31,1.9-.62,4.45-1,7.4-1.06,8.63-2.39,19.38-4.76,24.76-.58,1.32-1.3,2.76-2.06,4.29-3.35,6.68-7.51,15-4.89,22.46A43.17,43.17,0,0,0,655,346.28Z"></path><path class="cls-7" d="M602.44,398.57l-1.07,5.94s-17.76,1.31-28.55-7.84l3-9.09-5.29,4.88a64.21,64.21,0,0,1-9.7-11.51l-12.69-3.41c.14.56-.49.83-.2,1.43,1.67,3.49,2.84,6.25,3.95,8.21,3.29,5.83,9.26,12.95,17.82,19.18.44.33-.09,1,.36,1.27,10.25,7,24.43,10.78,40.08,4.33.45-.19,1,.8,1.41.59,26.58-11.91,54-50.35,56.88-54.3-8.2-1.16-15.73-12.94-16.55-15.27l-6.8,7.7,10.48,14.42L648,375.47l-3.46-3.34-.1,5.7L628.8,390.78l-3.39-3.73-.39,5.79a62.41,62.41,0,0,1-19.59,10.79Z"></path><path class="cls-7" d="M717.46,329.35c0,.2-.05.41-.09.64a32.83,32.83,0,0,1-1.9,7.09,37.47,37.47,0,0,1-4.89,8.81c-.75,1-1.58,2-2.37,2.87a43.48,43.48,0,0,0-3.91,18.58c.37,10.63-2.76,37.55-14.31,55.2-1,2.83-2,3.67-2.89,5.69l0,0,0,.09c24.82-27.9,36-67.73,36-67.73a7.17,7.17,0,0,1-4.31-.92c-1.58-1.13-4.83-7.52-.3-10.81a8.22,8.22,0,0,1,.93-.58c5.88-3.05,8.07,3.86,8.07,3.86s3.49-5.78,2.46-15.55C729.07,328.71,720.64,329,717.46,329.35Z"></path><path class="cls-7" d="M738,287c-1.44-8.67-6.71-10.91-6.71-10.91s1,7-4.63,11.46l-.45.34a27.24,27.24,0,0,1-5.33,2.74,33.28,33.28,0,0,0-6.52,3.6c-3.62,2.63-7.75,6.94-12.46,15l0,0c-.32.71-.64,1.42-1,2.12-.81,1.81-1.47,3.15-2.06,4.19-5.48,9.6-7.16,11.86-11.27,15.1l-.4.31c.65,1.89,3,9.61-.69,13.33a9.49,9.49,0,0,1,4.21,11.92,40.55,40.55,0,0,1-2.34,5c-1.77,3.32-4.3,7.53-7.33,12.09-7.46,11.19-18,24.44-27.73,31.53l-.62.44c-16.36,11.48-31.9,25.2-55.16,25.5-21.58.28-47-14.78-73.17-59.66l-1.59-.43c5.72,13.91,12.53,27.87,21.31,39.95a98,98,0,0,0,18.74,19.81c21.6,16.92,48,15.35,80.12-5.4,1.48-1,2.94-2,4.4-3,18.32-13.32,34.15-33.85,41.54-44l3.8-5.11.47,1.54a53.45,53.45,0,0,1,2.61,13.61c.28,6.85-3.87,26.8-5.31,31.29,8.92-11.78,12.51-42,11.25-51.92a28.16,28.16,0,0,1,.69-8.79c-2.49-6.37-9.56-27.05.24-34.17,2.56-1.86,6.27-2.79,11.53-2.3,0,0-1.16-6,4.7-11.92S739.43,295.69,738,287Zm-4.26,4.76,0,0c-2.05,1.45-3.4.67-3.88.26a2.56,2.56,0,0,1-.45-.48,4.58,4.58,0,0,1,0-4.52,5,5,0,0,1,1.56-2c.28-.23.44-.36.44-2.16l0-6.11,2.49,5.58a20,20,0,0,1,1.14,3.54C735.63,288.74,735.2,290.72,733.73,291.78Z"></path><path class="cls-7" d="M603.15,383.11a18.61,18.61,0,0,1-3-.89L595,386.66c8.48.06,16.5-4.63,19.58-6.67C610.39,382.45,606.43,383.76,603.15,383.11Z"></path><path class="cls-5" d="M747.77,280.09c-4.39-5.85-10.15-11.15-22.38-10.3l-.43,0-.28.24c-3.61.36-6.29,3-8.23,5.23-.08.09-.15.19-.23.29l-.38,0a29.31,29.31,0,0,0-15.69,3.88l-3.91,2.22,4.49.22a19.72,19.72,0,0,1,9,3.51c-.8,1.51-1.56,3.05-2.29,4.6a29.45,29.45,0,0,0-13,3.85l-3.91,2.22,4.49.22a19.47,19.47,0,0,1,8.26,3c-.43,1-.84,2-1.25,3s-.9,2.16-1.35,3.25h-.06a30,30,0,0,0-9.31,3.41l-3.91,2.22,4.5.23a17.15,17.15,0,0,1,5.44,1.51c-.26.53-.51,1-.74,1.41-4.9,8.6-6.54,11-9.77,13.64-1.88-1.68-6.59-6.25-7.84-11.12-2.77-10.79-2.95-20.78-.53-29.69,2.62-9.67,4.23-14.86,4.91-17.08.19-.62.32-1,.38-1.24a3.65,3.65,0,0,0-.47-3.49c-.88-1-2.43-1.29-4.72-.92-3.26.53-9.19,1.9-10.71,3.66-.93,1.08-3.64,5.63-4.91,13.56-.32,1.94-.63,4.51-1,7.48-1,8-2.34,19-4.55,24-.56,1.26-1.26,2.67-2,4.17-3.37,6.74-8,16-5,24.46l.17.48c-13.86,17.74-26.05,30-35.31,35.87l-.08-.1s-.68.5-1.8,1.21c-4,2.22-7.34,3.12-10,2.6a15.57,15.57,0,0,1-2.17-.6L599,383.18a19.78,19.78,0,0,0,3.37,1.09,27,27,0,0,1-5.79,1l-3,2.62c.54,0,1.07.06,1.61.06.33,0,.66,0,1,0l-.05,0,12.22,23.31c-16.81,6.34-30.3.13-37.15-4.45a2,2,0,0,0-.13-.74l7.72-20.29-2.54-.68L569,404.19c-6.75-5.2-12.51-11.56-15.95-17.66-.71-1.24-1.47-2.89-2.35-4.79-.44-.95-.91-2-1.44-3.08a2.61,2.61,0,0,0,.12-.28l.28-.44-3.14-.84.3.6a2,2,0,0,0,0,1.83c.57,1.19,1.08,2.29,1.55,3.31.9,2,1.68,3.64,2.44,5,2.25,4,7.54,11.75,17.82,19.33a1.76,1.76,0,0,0,.77,1.56c7.26,5,22.16,12.11,40.81,4.66a1.85,1.85,0,0,0,1.95.38c24.36-10.92,47.91-42.41,55.65-52.76.79-1.07,1.42-1.9,1.85-2.46l1.59-2-2.58-.07c-4.72-.14-9.51-3.68-13.49-10l0,0a43.49,43.49,0,0,1-2.27-5.5c-2.61-7.46,1.54-15.76,4.88-22.43.76-1.53,1.48-3,2.06-4.28,2.37-5.38,3.7-16.11,4.76-24.73.36-3,.68-5.49,1-7.39,1.19-7.41,3.7-11.56,4.31-12.26.48-.54,3.95-1.94,9.15-2.79,1.94-.31,2.35.08,2.36.09s.12.21-.11,1c-.06.21-.18.59-.36,1.17-.69,2.23-2.31,7.45-4.94,17.17-2.53,9.35-2.35,19.79.53,31,1.79,7,9.22,13,9.54,13.2l.81.65.81-.65c4.11-3.24,5.79-5.49,11.25-15.08.59-1,1.25-2.37,2.06-4.18,1.27-2.68,2.41-5.47,3.52-8.16.81-2,1.66-4,2.53-6l.07-.16c3.14-7.06,6.39-14.37,11.36-20.14,1.62-1.89,3.83-4.09,6.53-4.34a2.39,2.39,0,0,0,.95-.29c11.27-.67,16.12,4.44,19.76,9.3a5.33,5.33,0,0,1,1.14,4.18,8.66,8.66,0,0,1-2.6,4.64A41.26,41.26,0,0,0,733,303.69,36.59,36.59,0,0,0,729,317.87l0,.34.91,2c-3.57.23-10.82,1.46-14.58,7.46-3,.75-10.16,3.15-11.81,9.38-.86,3.27,0,7.27,2.18,11.06a45.29,45.29,0,0,0-4,19.32c.32,9.26-1.32,33.89-11.14,51.55,2.89-8.7,5.65-20.07,5.21-30.95a56,56,0,0,0-2.1-13.83l-.78-2.59-1.55,2.23A260.78,260.78,0,0,1,666,404.94l-.32.34-1.25,1.27c-.31.31-.62.63-.94.94l-1,1c-.54.53-1.08,1.06-1.62,1.57l-.36.35q-4.56,4.32-9,7.9l-.38.31h0c-2.76,2.19-5.57,4.25-8.42,6.1a139.93,139.93,0,0,1-16.34,9.16l-1.28.58a84.71,84.71,0,0,1-18.85,6.21l-.61.11v0a54.85,54.85,0,0,1-18.82.36l-2.32-.49a50.49,50.49,0,0,1-15.4-6.13l-.65-.39,0,0a61.38,61.38,0,0,1-5.38-3.75c-18.62-14.58-30.71-37.14-40-59.61l-3.18-.86c9.47,23.39,21.92,47.18,41.53,62.53q2.17,1.69,4.4,3.15c-8.15,4.55-21,11.33-21.12,11.41L542,448.46l2.95,1a26.83,26.83,0,0,0,7.79.92A84.24,84.24,0,0,0,582.84,444c.48-.2.94-.42,1.41-.64a52.18,52.18,0,0,0,10.74,1.1,59.25,59.25,0,0,0,9-.71c-.3.51-.6,1-.9,1.45-4.73,7.3-15.4,21.84-15.51,22l-1.9,2.59,3.17-.52c7-1.15,21.24-10.33,31.23-22.15a45.77,45.77,0,0,0,6.55-10.45,142.64,142.64,0,0,0,17.54-9.76c2.06-1.33,4.1-2.78,6.12-4.3a40.08,40.08,0,0,1-2.53,7c-3.76,7.84-11.93,22.59-12,22.73l-1.56,2.81,3.08-.92c6.81-2,19.74-13,28.13-26,7.65-11.85,7.6-24.91,7.55-26.85a271.42,271.42,0,0,0,19-23.7,59.42,59.42,0,0,1,1.29,10.51c.6,14.85-5,30.81-8.41,39l-4.44,9.7,7.53-4.86.13-.1c7.81-6.58,27.85-25.73,45.28-61.23,6.31-12.86,12.8-30.59,7.87-42.06a14.33,14.33,0,0,0-8.29-8.12l-1.21-2.7a33.68,33.68,0,0,1,3.58-12.8,40.32,40.32,0,0,1,10.27-12.19,10.7,10.7,0,0,0,3.81-6.06A8,8,0,0,0,747.77,280.09Zm-136.2,131a2.32,2.32,0,0,0-.57-.35l.08,0L599,387.68c7.56-1.08,14.11-5.06,16.66-6.78.83-.5,1.67-1,2.51-1.6,2.32,3.52,13.2,14.94,15.08,16.9C626.38,402.3,619,407.71,611.57,411.13Zm23.6-16.69c-3.78-3.94-13.19-13.95-14.88-16.66a123.84,123.84,0,0,0,15.35-14,175.62,175.62,0,0,0,14.89,14.67A201.85,201.85,0,0,1,635.17,394.44Zm17.67-46.78.11.19c3.83,6,8.46,9.83,13.25,10.89l-.51.68c-2.73,3.64-7.45,9.95-13.46,17a172.41,172.41,0,0,1-14.79-14.6c5.29-5.72,10.22-11.67,14.22-16.75C652.05,346.05,652.44,346.89,652.84,347.66Zm45.1-37.32c-.69-.29-1.33-.52-1.93-.71.87-.35,1.76-.65,2.65-.91C698.43,309.26,698.18,309.8,697.94,310.34Zm5.93-13.76a24.5,24.5,0,0,0-4.73-2.1,26.8,26.8,0,0,1,6.42-1.69C705,294,704.47,295.2,703.87,296.58Zm7.52-15.16c-.27.46-.54.92-.8,1.38a24.88,24.88,0,0,0-5.77-2.72,26.92,26.92,0,0,1,8.51-1.89C712.59,279.38,711.92,280.5,711.39,281.42ZM549.23,447.58c4.73-2.51,13.49-7.2,19.15-10.4a53.19,53.19,0,0,0,11.67,5.12C569,446.56,556.46,448.28,549.23,447.58Zm68.85-2.17c-8,9.44-19,17.3-26.1,20.18,3.44-4.73,9.9-13.7,13.31-19,.67-1.05,1.34-2.16,2.06-3.48a85,85,0,0,0,15.56-4.87A41.1,41.1,0,0,1,618.08,445.41Zm45.13-18.63c-6.7,10.39-16.61,19.59-23.3,23.36,2.67-4.88,7.54-13.89,10.21-19.46A43.05,43.05,0,0,0,653.57,420c1.39-1.12,2.75-2.28,4.1-3.47l.06-.05c.61-.53,1.21-1.07,1.81-1.62l.73-.66,1.08-1,1.1-1,.59-.56q3.59-3.45,7.21-7.32C670,409,668.66,418.33,663.21,426.78Zm42.84-89c1.1-4.18,5.71-6.25,8.63-7.15a30.43,30.43,0,0,1-1.6,5.61,35,35,0,0,1-4.55,8.2c-.36.49-.75,1-1.14,1.44A11.87,11.87,0,0,1,706.05,337.73Zm25.63-14.92a11.69,11.69,0,0,1,7.08,6.79c2.5,5.83,3.18,17.48-7.82,39.88-17.1,34.84-36.69,53.68-44.47,60.26l.35-.77,0,0c15.5-17.76,17.89-50.52,17.51-61.64a43.11,43.11,0,0,1,3.91-18.56c.79-.88,1.61-1.83,2.37-2.85a38.37,38.37,0,0,0,4.88-8.81,33.17,33.17,0,0,0,1.9-7.08c.05-.39.09-.7.12-1C721.46,322.89,730.37,322.79,731.68,322.81Z"></path><path class="cls-8" d="M612,387.66a1,1,0,0,1-.44-.51c-1.22-2.83-4.14-4.44-6.85-5.57-7.26-3-15.45-3.88-23.21-4.69-5-.53-10.22-.72-15.3-1.37-1.77-.19-3.3-.4-4.52-.65-10.56-2.19-13.14-3-17.35-5.85,0,0,3.31-8.84,9.08-12.5s16-9.26,28.7-9.89,18-.58,19.07-.63,3.64-.21,1.49-4.38-4.83-7.91-6.14-8.46-6.32-1.55-13.7-.39-24.35,5.23-32,4.46-20.25-4.36-28.48,1.9c-.43.34-.77.63-1.17.94-13.39-4.89-51.86-20.1-53.54-34.14a19.06,19.06,0,0,1,0-3.85l-14.43-8.82-2.59-65.51c-17.44,15.23-33.8,33-41.53,54.21-11.53,31.58,7.07,56.49,30.46,75.5,21.12,17.17,53.36,27.84,63.47,30.91a55.8,55.8,0,0,1-11.86,6c-14.08,5.21-31,4.86-40.26,4.11l-6.14-.7,3.47,2.83c9.33,5.79,33.27,18.45,71.73,23.95s46.2-7.27,46.11-15.19l2.85-2.61a35.81,35.81,0,0,1,14.16-.63,40.81,40.81,0,0,1,15.4,6.32c.55.5,7,3.79,10.8-1.55S616.56,398.88,612,387.66Z"></path><path class="cls-9" d="M520.93,339.93l-9.42-4.1L501,350.26l-12.21-4.05,2.11-4.32-5.46,1.66L468.33,332.7l2.5-4.38-5.63,1.42a62.58,62.58,0,0,1-16.32-15.3l3.89-4.41-6,.82s-6.74-16.49-1.36-29.57l7.32.06-.05-1.28-4-2.23a52.89,52.89,0,0,1,3.61-6.6l-.65-16.35c-1.49,1.38-2.74,2.55-3.7,3.59-4.53,4.94-9.46,12.81-12.74,22.88-.17.52-.94.21-1.1.74-3.49,11.91-2.7,26.56,8.27,39.46.32.37-.46,1.15-.13,1.52,19.55,21.6,64.58,35.8,69.22,37.31C510.1,352.23,519,341.42,520.93,339.93Z"></path><path class="cls-9" d="M596.72,393.87l-.46-.32a27,27,0,0,1-4.25-4.23,33.72,33.72,0,0,0-5.44-5.09c-3.63-2.63-9-5.22-18.08-7.23h0l-2.31-.26c-2-.22-3.45-.43-4.62-.67-10.82-2.24-13.49-3.14-17.85-6.05l-.42-.28c-1.6,1.2-8.21,5.79-12.88,3.46a9.49,9.49,0,0,1-10,7.68,40.58,40.58,0,0,1-5.5-.67c-3.7-.65-8.49-1.76-13.76-3.24-12.95-3.63-28.8-9.54-38.56-16.63l-.61-.45c-16-12-33.82-22.55-41.3-44.58-6.66-19.63-1-47,30.19-83.5l-.11-2.74c-10.05,8.84-19.68,18.51-27.44,29.19a97.9,97.9,0,0,0-13.05,23.94c-9.41,25.77.24,50.42,29.9,74.53,1.36,1.11,2.78,2.19,4.23,3.25,18.33,13.31,42.74,22,54.7,25.91l6,2-1.33.92a52.85,52.85,0,0,1-12.13,6.69c-6.43,2.38-26.69,4.6-31.4,4.62,13.95,4.84,43.83-1.09,52.86-5.35a28.2,28.2,0,0,1,8.57-2.06c5.29-4.33,22.77-17.44,32.57-10.33,2.56,1.86,4.59,5.11,5.75,10.26,0,0,5.39-3,12.78.78s20.22,15.09,28,11,8.3-9.75,8.3-9.75S602.74,397.84,596.72,393.87Zm7.22,5.24a20.22,20.22,0,0,1-3,2.18c-2.54,1.48-4.56,1.67-6,.61h0c-2-1.5-1.68-3-1.45-3.61a2.52,2.52,0,0,1,.32-.58,4.55,4.55,0,0,1,4.29-1.41,5.16,5.16,0,0,1,2.42.84c.32.2.49.31,2.2-.24l5.81-1.87Z"></path><path class="cls-9" d="M583.16,333.91c-1.9.29-4.42.78-7.34,1.35-8.54,1.65-19.17,3.71-25,3.12-1.44-.14-3-.38-4.72-.64-7.38-1.11-16.58-2.5-22.87,2.29a44.78,44.78,0,0,0-4.48,3.81l0,0c-.12.17-.28.36-.49.61-.77.9-1.46,1.78-2.08,2.63-3,4.1-4.25,7.63-3.8,10.5a20.69,20.69,0,0,0,1.28,4.56l7.68,2.47c1.72-20,17.2-21.47,30-20.78,4.83.26,23-5.53,34.7-6,8-.3,12.69,2.14,14.83,3.7a11.47,11.47,0,0,1,1,.82c-.05-.11-.11-.21-.16-.33-2.24-4.34-4.47-7.13-5.32-7.75l-.17-.1C595.31,333.86,590.59,332.75,583.16,333.91Z"></path><path class="cls-9" d="M474.2,315.87c-3.64-3.26-6.11-6.61-6.51-9.94a18.36,18.36,0,0,1-.05-3.85l-6.11-3.73C463.82,306.9,471.2,313.49,474.2,315.87Z"></path><path class="cls-9" d="M553.51,398.15a32.34,32.34,0,0,1-7.33.38,37.72,37.72,0,0,1-9.89-1.92c-1.2-.4-2.37-.89-3.46-1.37a43.17,43.17,0,0,0-18.88,2c-10,3.63-36.57,9-56.92,3.45-3-.07-4.12-.82-6.31-1h-.14c34.21,15,75.54,13.32,75.54,13.32a7.23,7.23,0,0,1-.46-4.38c.59-1.86,5.66-6.93,10.2-3.63a6.67,6.67,0,0,1,.83.71c4.72,4.64-1.17,8.86-1.17,8.86s6.57,1.54,15.55-2.46c7.27-3.24,4.42-11.17,3.08-14.08Z"></path><path class="cls-8" d="M411.73,359.6s16.66,3.24,25.41,4.4a42.08,42.08,0,0,0,11.33-.07,172.65,172.65,0,0,0,22.76,12.4l.44.32s-13.07,4.92-27.29,1.16S415.68,365.31,411.73,359.6Zm-7.23-55c.46.54.94,1,1.42,1.55a51.39,51.39,0,0,1,1.09-17C400.26,283,388,271.05,388,271.05,388,278,394.93,293.41,404.5,304.58Zm8.06,36a44.77,44.77,0,0,0,12.14,3,85.4,85.4,0,0,1-11.9-16.26c-1.46-.27-3-.57-4.52-1-8.53-2.28-25.77-8-25.77-8C385.7,324.53,398.94,335,412.56,340.6Z"></path><path class="cls-9" d="M411.73,359.6s16.66,3.24,25.41,4.4a42.08,42.08,0,0,0,11.33-.07c3.82,2.23,10.74,6.91,10.74,6.91S438,374,411.73,359.6Zm5.1-24.22c-1.76-2.5-1.65-3.74-4-8.06-1.46-.27-3-.57-4.52-1-8.53-2.28-25.77-8-25.77-8C393.71,328.76,417.42,336.22,416.83,335.38Zm-15.46-43.29a53.25,53.25,0,0,0-2.17,5.51,76.2,76.2,0,0,0,5.3,7c.46.54.94,1,1.42,1.55a51.39,51.39,0,0,1,1.09-17C400.26,283,388,271.05,388,271.05a13.28,13.28,0,0,0,.13,1.7C391,277.1,397.38,286.52,401.37,292.09Z"></path><path class="cls-2" d="M595.38,367.11a28.07,28.07,0,0,1,8.16,13.11c-2.08-.63-4.16-1.1-6-1.49q-1.47-.33-2.94-.6A20.93,20.93,0,0,0,595.38,367.11Zm-15.89,9c2.62.25,5.24.52,7.85.85a28.24,28.24,0,0,0-7.41-10.83A20.46,20.46,0,0,1,579.49,376.14Zm-14.93-8.27a18.54,18.54,0,0,1,.2,6.85c1.88.27,3.77.44,5.66.61A28.17,28.17,0,0,0,564.56,367.87Z"></path><path class="cls-2" d="M542.57,388.46c-3.65.21-7.07,2.73-9.41,5.58,1.15.5,2.31,1,3.51,1.39a36.16,36.16,0,0,0,9.54,1.86,31.85,31.85,0,0,0,7-.37c.43-.07.76-.13,1-.2C551.84,392.53,547.58,388.18,542.57,388.46Z"></path><path class="cls-2" d="M602.94,398.2s-5,4.49-7.39,2.69-.49-3.56,2.22-3.24S599.2,399.4,602.94,398.2Z"></path><path class="cls-5" d="M596.93,402.63c2.87,0,6.12-2.77,6.88-3.46l4.53-4.08-5.8,1.86c-1.72.55-1.91.43-2.2.25a5.18,5.18,0,0,0-2.42-.85c-2.17-.26-4,.54-4.6,2-.24.58-.56,2.11,1.45,3.6A3.5,3.5,0,0,0,596.93,402.63Zm.68-3.68a2.64,2.64,0,0,1,1.31.44c-1.09.56-2.09.82-2.59.46a3,3,0,0,1-.57-.55A2.4,2.4,0,0,1,597.61,399Z"></path><path class="cls-5" d="M613.25,387.17l-.17-.4-.32-.19c-1.45-3.32-4.77-5.06-7.51-6.21l-.34-.13-.11-.37a29.4,29.4,0,0,0-8.53-13.72l-3.32-3,1.17,4.35a19.78,19.78,0,0,1-.55,9.66c-1.68-.3-3.38-.54-5.08-.76a29.45,29.45,0,0,0-7.67-11.16l-3.32-3,1.17,4.35a19.39,19.39,0,0,1-.31,8.78c-1.1-.1-2.19-.18-3.26-.26l-3.51-.28,0-.05a29.65,29.65,0,0,0-6.13-7.8l-3.32-3,1.18,4.34a17.16,17.16,0,0,1,.24,5.65c-.58-.09-1.11-.18-1.56-.27-9.7-2-12.46-2.84-16-5.07,1-2.32,3.91-8.2,8.16-10.9,9.4-6,18.84-9.22,28.07-9.68,10-.5,15.42-.57,17.74-.6l1.32,0a3.68,3.68,0,0,0,3.18-1.52c.66-1.15.47-2.71-.59-4.77-1.51-2.94-4.65-8.16-6.79-9.06-1.32-.56-6.48-1.73-14.42-.49-1.94.31-4.48.8-7.41,1.37-7.93,1.53-18.77,3.64-24.23,3.08-1.37-.13-2.93-.37-4.58-.62-7.45-1.12-17.66-2.66-24.82,2.79l-.4.32c-21.15-7.7-36.63-15.49-45-22.49l.08-.12s-.74-.52-1.82-1.42c-3.27-3.06-5.13-5.95-5.45-8.6a16.8,16.8,0,0,1-.09-2.93l-2.47-1.51a20,20,0,0,0-.08,4.23,27.05,27.05,0,0,1-3.13-6.19l-3.26-2a22.53,22.53,0,0,0,1,3.4h0l-18.39,18.83c-11.22-14-9.48-28.78-7.25-36.71a1.93,1.93,0,0,0,.67-.36l16.87.84-.11-2.62L437.1,280c2.86-8,7.13-15.47,11.86-20.63.75-.81,1.71-1.73,2.81-2.76l-.14-3.45-.61.58c-1.58,1.46-2.95,2.73-4,3.86-3.09,3.37-8.84,10.8-12.87,22.92a1.76,1.76,0,0,0-1.25,1.21c-2.47,8.44-4.67,24.82,8.18,40.26a1.84,1.84,0,0,0,.24,2c17.92,19.79,55.15,32.46,67.38,36.62,1.26.43,2.25.76,2.91,1l2.43.89-.73-2.48c-1.32-4.53.56-10.18,5.31-15.91l0,0a43.52,43.52,0,0,1,4.53-3.86c6.29-4.79,15.47-3.4,22.85-2.29,1.68.25,3.27.49,4.7.64,5.85.58,16.46-1.47,25-3.12,2.92-.57,5.43-1.05,7.33-1.35,7.42-1.16,12.14-.05,13,.31.67.29,3.07,3.16,5.48,7.84.9,1.75.65,2.26.65,2.27s-.15.18-1,.22l-1.24,0c-2.33,0-7.81.11-17.83.61-9.68.48-19.56,3.87-29.34,10.08-6.07,3.85-9.47,12.77-9.61,13.15l-.36,1,.86.58c4.35,2.9,7,3.81,17.82,6,1.17.24,2.64.46,4.62.67,2.94.37,5.93.6,8.83.82,2.14.16,4.35.33,6.5.55l.17,0c7.69.81,15.64,1.64,22.67,4.58,2.3,1,5.07,2.38,6.14,4.87a2.47,2.47,0,0,0,.57.81c4.12,10.52.76,16.7-2.73,21.67a5.34,5.34,0,0,1-3.63,2.37,8.59,8.59,0,0,1-5.21-1,41.29,41.29,0,0,0-16-6.64,36.44,36.44,0,0,0-14.69.64l-.33.08-1.65,1.49c-1.32-3.32-4.73-9.84-11.6-11.56-1.64-2.64-6.12-8.67-12.56-8.33-3.38.19-6.94,2.19-9.85,5.49a45.2,45.2,0,0,0-19.59,2.21c-8.71,3.17-32.65,9.22-52.47,5.34,9.16.05,20.83-.83,31-4.62a55.35,55.35,0,0,0,12.5-6.27l2.22-1.54-2.59-.78a266.8,266.8,0,0,1-33.16-12.5l-.43-.2c-1.1-.51-2.2-1-3.31-1.57l-1-.5-1.32-.66-1.51-.77-1-.5c-.81-.42-1.61-.84-2.4-1.27l-.08,0c-3.7-2-7.16-4.06-10.35-6.15l-.41-.27h0a101.63,101.63,0,0,1-8.4-6.12,139.18,139.18,0,0,1-13.78-12.72l-.94-1a85.17,85.17,0,0,1-11.72-16l-.3-.55h0a54.84,54.84,0,0,1-6.15-17.73l-.25-2.42a50.11,50.11,0,0,1,1.07-16.53l.17-.75,0,0a58.38,58.38,0,0,1,1.9-6.28c7.52-20.61,23.33-38,40.36-53l-.13-3.36c-17.89,15.51-34.73,33.66-42.69,55.46-.63,1.72-1.17,3.44-1.64,5.15-6.84-6.34-17.25-16.45-17.37-16.56L386.64,268v3.1c0,7.11,6.79,22.62,16.86,34.37.34.4.7.77,1.05,1.14a55.19,55.19,0,0,0,5.72,18.9c-.57-.13-1.12-.26-1.65-.4-8.4-2.25-25.52-7.91-25.69-8l-3.05-1,1.47,2.85c3.26,6.32,16.38,17,30.72,22.86a45.83,45.83,0,0,0,11.95,3,141.77,141.77,0,0,0,14.71,13.66c1.91,1.55,3.91,3,6,4.49a39.6,39.6,0,0,1-7.4-.25c-8.61-1.15-25.17-4.37-25.33-4.4l-3.15-.61,1.82,2.64c4.05,5.85,18.43,14.77,33.39,18.73a45.3,45.3,0,0,0,11.67,1.48,51,51,0,0,0,16.2-2.6,269.62,269.62,0,0,0,28.4,10.71,57.76,57.76,0,0,1-9.59,4.47c-13.94,5.17-30.86,4.75-39.66,4L440.47,396l6.95,5.66.13.1c8.68,5.39,33.08,18.53,72.23,24.14a121.86,121.86,0,0,0,17,1.32c9.89,0,19.57-1.65,25.49-6.84a14.34,14.34,0,0,0,5.16-10.39l2.18-2a33.7,33.7,0,0,1,13.28-.54,40.1,40.1,0,0,1,14.77,6,10.74,10.74,0,0,0,6.95,1.75,8,8,0,0,0,5.8-3.51C614.57,405.65,617.83,398.54,613.25,387.17ZM443.65,322.6a3.09,3.09,0,0,0,.16-.65l.05.06,18.19-18.62c3.37,6.85,9.19,11.85,11.62,13.74.72.64,1.48,1.27,2.29,1.89-2.64,3.29-10.14,17.18-11.42,19.56C456.62,334,449.2,328.61,443.65,322.6Zm23.16,17.28c2.58-4.81,9.19-16.84,11.25-19.3a123.29,123.29,0,0,0,18.06,10.27,175.93,175.93,0,0,0-9.35,18.7A202.74,202.74,0,0,1,466.81,339.88Zm49.95,2.35-.14.17c-4.57,5.51-6.74,11.09-6.26,16l-.81-.28c-4.31-1.46-11.76-4-20.36-7.54A173.77,173.77,0,0,1,498.51,332c7.08,3.27,14.25,6.11,20.32,8.35C518.05,341,517.37,341.62,516.76,342.23Zm49.44,31.36c.06-.74.08-1.42.07-2a28,28,0,0,1,1.69,2.24C567.37,373.73,566.78,373.66,566.2,373.59ZM581.12,375a24.46,24.46,0,0,0,.52-5.15,26.25,26.25,0,0,1,3.6,5.59Zm16.74,2.47c-.52-.12-1.05-.23-1.57-.33a24.57,24.57,0,0,0,.81-6.33,26.9,26.9,0,0,1,4.43,7.51C600.17,378,598.89,377.68,597.86,377.45ZM404.27,302.26c-7.48-9.21-13-20.59-14.56-27.68,3.86,3.71,11,10.59,15.81,15A53.34,53.34,0,0,0,404.27,302.26Zm8.78,37.13c-11.44-4.67-22.31-12.71-27.25-18.59,5.56,1.81,16.08,5.18,22.15,6.79,1.2.32,2.46.61,3.93.89a85.1,85.1,0,0,0,9.44,13.29A42.07,42.07,0,0,1,413.05,339.39Zm31.66,37.15c-11.94-3.16-23.75-9.73-29.41-14.93,5.47,1,15.54,2.87,21.67,3.69a43.29,43.29,0,0,0,11.2,0c2.2,1.43,4.46,2.79,6.75,4.1l.78.44,1.39.78,1.23.67.85.46q4.35,2.33,9.11,4.56C463.72,377.47,454.44,379.12,444.71,376.54Zm97.94,13.23c4.33-.25,7.71,3.51,9.46,6a30.42,30.42,0,0,1-5.83.21,35.09,35.09,0,0,1-9.2-1.79c-.57-.19-1.13-.4-1.71-.64A11.85,11.85,0,0,1,542.65,389.77Zm17.84,28.6c-4.77,4.18-15.64,8.43-40.34,4.89-38.42-5.5-62.39-18.32-71.06-23.68l.84.1,0,0c7.45,3.18,16.11,4.34,24.69,4.34A127.72,127.72,0,0,0,514,397.32a43,43,0,0,1,18.85-2c1.25.54,2.32,1,3.45,1.36a38.15,38.15,0,0,0,9.89,1.93c.65,0,1.3,0,2,0a31.52,31.52,0,0,0,5.36-.44c.4-.06.7-.12,1-.18,7.11,1.81,10,10.26,10.35,11.51A11.72,11.72,0,0,1,560.49,418.37Z"></path><path class="cls-10" d="M495.18,242c-1.63-7.5-2.11-20.6-10.62-26.49-.45-.32-.83-.55-1.25-.83.51-14.25,3.1-55.53,15.92-61.47l.31-.12,1.68-9.55,68.31-30C549.34,101.4,526.91,91,503.92,90.12c-33.59-1.2-51.53,24.18-62.38,52.3-9.81,25.39-10,59.36-9.78,69.91a55.17,55.17,0,0,1-9.37-9.42c-9.31-11.78-14.2-28-16.35-37l-1.23-6.06L403.2,164c-2.64,10.67-7.27,37.34-.63,75.62s21.19,41.69,28.71,39.15l3.35,1.92a35.43,35.43,0,0,1,5,13.26,40.84,40.84,0,0,1-1.25,16.61c-.31.67-1.43,7.87,4.81,9.79s13.67,3.2,22.94-4.57a1.1,1.1,0,0,1,.35-.59c2.31-2,2.94-5.3,3.18-8.22.64-7.85-1.09-15.9-2.71-23.53-1.06-5-2.47-9.95-3.43-15-.36-1.75-.64-3.27-.77-4.5-1.19-10.73-1.18-13.44.2-18.32,0,0,9.43.42,14.69,4.78s13.75,12.35,18.27,24.24,6.13,17,6.5,17.94,1.32,3.39,4.63.06,6-7,6.14-8.45-.48-6.49-3.86-13.15S496.8,249.54,495.18,242Z"></path><path class="cls-10" d="M430.9,116.61s2.07,16.85,3.67,25.53a41.53,41.53,0,0,0,3.57,10.75,173.14,173.14,0,0,0-4.76,25.48l-.17.52s-8.72-10.91-9.54-25.59S426.69,122.14,430.9,116.61ZM481,92.74c-.37.6-.7,1.21-1,1.82a51.54,51.54,0,0,1,16.47-4.2c3.78-8.32,11.34-23.72,11.34-23.72C501.16,68.8,488.66,80.18,481,92.74Zm-31.76,18.79a44.49,44.49,0,0,0,.92,12.47,85.52,85.52,0,0,1,11.78-16.35c-.2-1.46-.37-3-.45-4.59-.47-8.82-.37-27-.37-27C456.22,81,450.31,96.86,449.23,111.53Z"></path><path class="cls-11" d="M430.9,116.61s2.07,16.85,3.67,25.53a41.53,41.53,0,0,0,3.57,10.75c-.94,4.32-3.26,12.36-3.26,12.36S425.31,146,430.9,116.61ZM455.51,114c1.83-2.45,3.05-2.73,6.42-6.34-.2-1.46-.37-3-.45-4.59-.47-8.82-.37-27-.37-27C454.66,90,454.9,114.8,455.51,114ZM491.9,85.9a54.3,54.3,0,0,0-5.91-.36,77.8,77.8,0,0,0-5,7.2c-.37.6-.7,1.21-1,1.82a51.54,51.54,0,0,1,16.47-4.2c3.78-8.32,11.34-23.72,11.34-23.72a13.8,13.8,0,0,0-1.58.64C503,71.42,496,80.39,491.9,85.9Z"></path><path class="cls-2" d="M480.51,293.6a28,28,0,0,1-9.95,11.81c0-2.17-.24-4.29-.42-6.13-.1-1-.21-2-.34-3A21,21,0,0,0,480.51,293.6ZM467,281.28c.58,2.57,1.13,5.14,1.61,7.73a28.16,28.16,0,0,0,8-10.4A20.43,20.43,0,0,1,467,281.28Zm3.26-16.76a18.75,18.75,0,0,1-6.46,2.31c.33,1.87.75,3.72,1.17,5.57A28.57,28.57,0,0,0,470.27,264.52Z"></path><path class="cls-2" d="M443.88,250c-1.32-3.41-4.78-5.88-8.21-7.23-.12,1.26-.23,2.51-.24,3.77a36.5,36.5,0,0,0,1.18,9.65,31.5,31.5,0,0,0,2.52,6.57c.2.39.37.68.52.93C442.88,260,445.7,254.65,443.88,250Z"></path><path class="cls-2" d="M453.28,310.39s-5.81-3.35-4.85-6.19,3.24-1.57,3.77,1.11S451,307.21,453.28,310.39Z"></path><path class="cls-5" d="M457.91,314.57l-5.29-3.05c-1.12-.64-6.67-4.06-5.43-7.74.8-2.37,2.35-2.53,3-2.49,1.56.1,2.89,1.61,3.32,3.76a5.28,5.28,0,0,1-.06,2.57c-.09.33-.15.55.91,2ZM450,303.9a3.52,3.52,0,0,0-.34.72c-.2.59.37,1.46,1.23,2.32a2.62,2.62,0,0,0,0-1.38A2.45,2.45,0,0,0,450,303.9Z"></path><path class="cls-11" d="M515.8,124.46l2.89,9.14,1.41-7.06a62.63,62.63,0,0,1,13,3L545.91,124c-3.21-1.74-5.66-3.2-7.63-4.1-6.09-2.78-15.1-5-25.69-5-.55,0-.49-.82-1-.81-12.41.36-26.1,5.64-35,20.06-.26.41-1.24-.09-1.49.35C460.59,159.67,461,206.88,461,211.77c7.31-3.88,20.33,1.22,22.36,2.62l1-10.22-17-5.51.08-12.87,4.76.67L469,181.79l5-19.66,4.95,1-3.1-4.91A62.52,62.52,0,0,1,485.33,138l5.39,2.33-2.62-5.44S501.7,123.39,515.8,124.46Z"></path><path class="cls-11" d="M499.23,153.25l.31-.12.81-4.61a41.93,41.93,0,0,0-8.56,14C493.77,158.05,496.2,154.66,499.23,153.25Z"></path><path class="cls-11" d="M435.42,256.52a37.67,37.67,0,0,1-1.22-10c0-1.26.11-2.53.23-3.71a43.36,43.36,0,0,0-7.75-17.33c-6.55-8.38-19.85-32-20.88-53.07-.86-2.86-.49-4.17-1-6.3v0l0-.09c-3.68,37.16,10.68,76,10.68,76a7.13,7.13,0,0,1,4-1.79c1.95,0,8.34,3.24,6.6,8.57a6.49,6.49,0,0,1-.41,1c-3,5.93-8.8,1.62-8.8,1.62s.57,6.73,7.15,14c5.33,5.91,12,.75,14.34-1.43l-.3-.57A33.3,33.3,0,0,1,435.42,256.52Z"></path><path class="cls-11" d="M462.79,271c-.16-.76-.32-1.52-.46-2.28-.41-1.94-.66-3.41-.79-4.6-1.22-11-1.18-13.8.24-18.84l.13-.49c-1.63-1.15-8.05-6-7.27-11.18a9.49,9.49,0,0,1-10.41-7.18,41.67,41.67,0,0,1-1.06-5.43c-.52-3.73-.95-8.62-1.18-14.09-.54-13.44.18-30.34,3.91-41.81l.24-.72c6.48-18.9,11-39.13,29.63-53,16.83-12.57,45.15-15.5,90.51,3.65l2.1-.92c-11.89-7.14-24.5-13.62-37.53-17.86a98.16,98.16,0,0,0-26.8-5c-27.42-1-47.88,15.81-61.65,51.47q-.94,2.46-1.78,5c-7,21.54-7.73,47.45-7.74,60l-.07,6.36-1.28-1a53.14,53.14,0,0,1-10.11-9.47c-4.25-5.38-12.62-24-14.1-28.44-.29,14.77,14.59,41.35,21.42,48.62a28.11,28.11,0,0,1,4.61,7.51c5.76,3.7,23.63,16.27,19.89,27.79-1,3-3.43,5.95-8,8.63,0,0,4.48,4.22,3.2,12.41s-8.11,23.88-1.85,30.05,11.85,4.88,11.85,4.88-4.91-5-3-12c0-.18.1-.36.16-.54a28.29,28.29,0,0,1,2.7-5.35,32.52,32.52,0,0,0,3.16-6.74c1.38-4.26,2.19-10.17,1.29-19.43ZM458,314.68l-5.29-3.05a20.59,20.59,0,0,1-3-2.19c-2.18-2-3-3.82-2.43-5.55v0c.81-2.38,2.36-2.54,3-2.49a2.34,2.34,0,0,1,.64.12,4.57,4.57,0,0,1,2.67,3.65,5.15,5.15,0,0,1-.05,2.56c-.1.36-.15.56.91,2Z"></path><path class="cls-11" d="M504.76,265.16c-4.22-7.62-9.46-17.09-10.71-22.84-.3-1.41-.56-3-.84-4.68-1.23-7.37-2.75-16.54-9.25-21a45,45,0,0,0-5-3.08h0c-.2-.06-.43-.16-.73-.28-1.09-.45-2.14-.84-3.14-1.16-4.83-1.57-8.57-1.7-11.16-.38a20.66,20.66,0,0,0-3.95,2.63l0,8.07c19.55-4.54,25.74,9.72,29,22.09,1.25,4.67,12.38,20.21,16.4,31.15,2.76,7.53,1.89,12.74,1.07,15.25a11.12,11.12,0,0,1-.47,1.21l.26-.25c3.44-3.47,5.41-6.46,5.73-7.45a.88.88,0,0,0,0-.2c.08-.92-.32-5.75-3.72-12.47C507.44,270,506.2,267.75,504.76,265.16Z"></path><path class="cls-5" d="M506.88,263.85c-3.91-7.06-9.26-16.73-10.42-22.09-.29-1.34-.55-2.9-.83-4.55-1.23-7.43-2.92-17.61-10.32-22.74l-.43-.28c.79-22.5,3.42-39.62,7.48-49.78l.14,0s.27-.86.79-2.16c1.76-3.76,3.76-6.31,6-7.56l.55-3.11-.64.25c.24-.31.5-.62.76-.93l1.09-6.2-22.57-11.17c9.88-15,24.44-17.92,32.67-18.24a2.14,2.14,0,0,0,.55.52l5.6,20.69,2.42-1.07-5.23-19.3c8.52.23,16.91,2,23.28,4.88,1.3.59,2.89,1.48,4.73,2.5l1.93,1.08,3-1.3a2.25,2.25,0,0,0-.42-.3c-1.16-.63-2.22-1.22-3.19-1.76-1.88-1-3.51-2-4.91-2.6-4.16-1.9-13-5.08-25.78-5.17a1.84,1.84,0,0,0-1.54-.81c-8.79.26-25,3.23-35.76,20.22a1.84,1.84,0,0,0-1.79.84c-13.29,23.16-13.83,62.48-14,75.4,0,1.33,0,2.37-.06,3.08l-.09,2.58,2.14-1.46c3.9-2.66,9.85-2.61,16.76.14h.05a45,45,0,0,1,5.07,3.12c6.49,4.5,8,13.66,9.23,21,.28,1.68.55,3.27.85,4.68,1.24,5.73,6.48,15.19,10.69,22.8,1.44,2.59,2.68,4.83,3.55,6.55,3.39,6.7,3.79,11.53,3.71,12.45-.07.72-2.05,3.9-5.76,7.64-1.38,1.39-1.95,1.32-1.95,1.31s-.23-.1-.53-.91l-.4-1.15c-.75-2.22-2.51-7.39-6.09-16.79-3.45-9.06-9.73-17.4-18.66-24.79-5.54-4.58-15.07-5.06-15.48-5.08l-1,0-.28,1c-1.42,5-1.46,7.85-.24,18.81.13,1.19.38,2.66.79,4.6.55,2.91,1.26,5.83,1.95,8.66.51,2.08,1,4.24,1.48,6.35l0,.17c1.61,7.56,3.28,15.37,2.66,23-.21,2.48-.7,5.56-2.74,7.35a2.44,2.44,0,0,0-.6.79c-8.73,7.17-15.64,5.88-21.45,4.1a5.39,5.39,0,0,1-3.38-2.72,8.64,8.64,0,0,1-.62-5.28,41.22,41.22,0,0,0,1.35-17.31A36.43,36.43,0,0,0,435.75,280l-.17-.29-1.93-1.1c2.75-2.28,7.9-7.54,7.41-14.6,2-2.38,6.37-8.53,4-14.53-1.22-3.16-4.23-5.92-8.27-7.67a45.07,45.07,0,0,0-8.15-18c-5.71-7.31-18.86-28.2-21.29-48.25,2.78,8.73,7.23,19.55,14,28.09a54.9,54.9,0,0,0,9.83,9.95l2.15,1.64-.05-2.7a260.56,260.56,0,0,1,2.22-40l.09-.59c.08-.57.16-1.14.25-1.71l.21-1.37c.08-.44.15-.88.22-1.33.13-.76.26-1.51.4-2.26,0-.15.05-.31.08-.47.76-4.11,1.64-8,2.64-11.68l.12-.47h0c.94-3.39,2-6.71,3.23-9.88A141.43,141.43,0,0,1,450.53,126l.75-1.33a84.41,84.41,0,0,1,11.61-16.09l.42-.46v0a55,55,0,0,1,14.76-11.23l2.42-1.07a50.5,50.5,0,0,1,16.06-4.09l.76-.07,0,0a61.7,61.7,0,0,1,6.55-.12c22.42.81,44.33,10.89,64.19,22.8l2.93-1.29c-20.56-12.5-43.42-23.28-67-24.12-1.83-.07-3.64-.06-5.41,0,3.92-8.47,10.31-21.49,10.38-21.63l1.37-2.79-2.95,1c-6.76,2.2-19.42,13.44-27.48,26.65-.28.46-.53.91-.78,1.37a55.24,55.24,0,0,0-16.19,11.27c-.05-.59-.1-1.15-.13-1.7-.46-8.68-.36-26.72-.36-26.9V72.88l-2.25,2.28c-5,5.06-11.12,20.84-12.26,36.28a45.84,45.84,0,0,0,.84,12.31,141.07,141.07,0,0,0-8.44,18.2c-.89,2.29-1.69,4.66-2.43,7.07a40.45,40.45,0,0,1-2-7.11c-1.57-8.55-3.63-25.29-3.65-25.46l-.39-3.18-1.95,2.55c-4.31,5.66-8.35,22.09-7.49,37.55.78,14.08,8.5,24.62,9.68,26.16a270.1,270.1,0,0,0-1.41,30.31,58.46,58.46,0,0,1-7.22-7.74c-9.22-11.66-14.05-27.88-16.1-36.47l-2.11-10.44L402,163.54l-.05.16c-2.45,9.91-7.41,37.19-.65,76.15,2.45,14.11,7.63,32.27,18.36,38.65a14.34,14.34,0,0,0,11.48,1.7l2.57,1.47a33.72,33.72,0,0,1,4.62,12.46,40.15,40.15,0,0,1-1.14,15.9,10.65,10.65,0,0,0,.48,7.14,8,8,0,0,0,5.13,4.44,29.71,29.71,0,0,0,8.69,1.5c4.69,0,9.79-1.55,15.48-6.32l.33-.28.09-.36c2.71-2.41,3.33-6.11,3.58-9.07,0-.12,0-.24,0-.36l.32-.22a29.34,29.34,0,0,0,10.42-12.35l1.88-4.15-3.8,2.51a19.24,19.24,0,0,1-9.35,2.46c-.24-1.69-.53-3.38-.85-5.06a29.44,29.44,0,0,0,8.25-10.75l1.86-4.1-3.77,2.46a19.4,19.4,0,0,1-8.45,2.42c-.25-1.07-.5-2.13-.76-3.18s-.55-2.27-.82-3.42l0,0a29.86,29.86,0,0,0,5.53-8.24l1.86-4.09-3.77,2.46a17.67,17.67,0,0,1-5.3,2c-.09-.58-.17-1.11-.22-1.57-1.09-9.83-1.16-12.72-.12-16.78,2.51.25,9,1.19,12.88,4.4,8.58,7.09,14.6,15.07,17.88,23.7,3.56,9.35,5.32,14.5,6.06,16.7.21.62.35,1,.43,1.23a3.65,3.65,0,0,0,2.43,2.55c1.3.28,2.72-.38,4.36-2,2.32-2.35,6.31-6.94,6.51-9.26.12-1.42-.36-6.69-4-13.86C509.58,268.73,508.33,266.47,506.88,263.85ZM476,135.54a2.71,2.71,0,0,0,.67,0l0,.07,23.33,11.55c-5.47,5.32-8.43,12.4-9.48,15.29-.38.88-.74,1.8-1.09,2.76-3.94-1.49-19.47-4.33-22.13-4.81C469.16,151.38,472,142.68,476,135.54Zm6.38,77c-.87-.53-1.68-1-2.46-1.38l-.2-.08c-6.65-2.65-12.62-3-17.12-1,0-.27,0-.56,0-.85.07-4.56.18-12.43.88-21.7A173.17,173.17,0,0,1,484,190.61C483.08,198.35,482.58,206.06,482.33,212.52Zm-18.68-27.64a203.24,203.24,0,0,1,3-22c5.38,1,18.86,3.54,21.84,4.73A123.13,123.13,0,0,0,484.32,188,176.41,176.41,0,0,0,463.65,184.88ZM505,69.41c-2.35,4.81-6.68,13.75-9.38,19.67a52.8,52.8,0,0,0-12.46,2.74C489.58,81.85,498.7,73.09,505,69.41Zm-54.43,42.22c.91-12.32,5.2-25.15,9.26-31.67,0,5.85,0,16.9.38,23.17.07,1.24.19,2.53.38,4a84.54,84.54,0,0,0-9.73,13.08A42.3,42.3,0,0,1,450.53,111.63ZM425,153.22c-.69-12.33,1.92-25.6,5.11-32.58.72,5.52,2.07,15.66,3.19,21.74A43.08,43.08,0,0,0,436.75,153c-.46,1.72-.88,3.47-1.28,5.22l0,.1q-.27,1.17-.51,2.34c-.07.33-.13.65-.2,1-.1.48-.19,1-.28,1.44s-.19,1-.28,1.49l-.15.8c-.58,3.27-1.1,6.65-1.54,10.15C430,171.58,425.54,163.27,425,153.22Zm11.84,91.47a11.86,11.86,0,0,1,5.84,5.76c1.57,4-1,8.41-2.78,10.86a30.79,30.79,0,0,1-2-5.48,34.91,34.91,0,0,1-1.14-9.3C436.75,245.91,436.78,245.3,436.82,244.69Zm-6.12,32.9a11.69,11.69,0,0,1-9.72-1.33C415.53,273,408.13,264,403.86,239.4c-6.64-38.24-1.86-65,.56-74.9l.17.83h0c-2.1,23.48,15.22,51.39,22.06,60.16a43.11,43.11,0,0,1,7.75,17.31c-.12,1.18-.23,2.43-.24,3.7a37.65,37.65,0,0,0,1.23,10,33.63,33.63,0,0,0,2.62,6.84c.19.35.34.62.48.86C438.92,271.52,431.77,276.84,430.7,277.59Zm46.84,18.78a26.57,26.57,0,0,1-5.78,6.53c-.09-1.4-.21-2.7-.32-3.75-.05-.53-.1-1.06-.17-1.59A24.78,24.78,0,0,0,477.54,296.37Zm-3.87-15a26.42,26.42,0,0,1-4.2,5.15c-.25-1.26-.53-2.6-.86-4.06A24.43,24.43,0,0,0,473.67,281.38Zm-6.37-14.1a27,27,0,0,1-1.61,2.3c-.13-.58-.25-1.16-.36-1.73C466.05,267.67,466.71,267.48,467.3,267.28Z"></path><path class="cls-12" d="M590.41,141.37 c.16,-.52 .26,-1 .4,-1.44 c13.71,-3.92 53.77,-14.22 63.38,-3.86 a20.11,20.11 0 0 1 4.36,7.72 l16.48,-.71 l37.66,51.53 c5.92,-24.08 9.67,-50.2 3,-73.58 c-9.24,-32.33 -38.92,-41.54 -69,-43.18 c-27.17,-1.48 -59.54,8.85 -69.51,12.3 a55.18,55.18 0 0 1 6.07,-11.81 c8.32,-12.5 22.22,-22.16 30.15,-27 l5.38,-3 l-4.47,-.25 c-11,.79 -37.76,4.63 -72.11,22.77 s-33.1,33 -28.37,39.4 L513,114 a35.6,35.6 0 0 1 -11.08,8.83 a40.76,40.76 0 0 1 -16.18,3.94 c-.73,-.09 -7.93,1.08 -7.82,7.6 s1.18,14 11.43,20.4 a1.17,1.17 0 0 1 .67,.16 c2.64,1.57 5.95,1.16 8.81,.48 c7.65,-1.81 14.77,-6 21.53,-9.85 c4.4,-2.54 8.7,-5.42 13.18,-7.88 c1.55,-.89 2.91,-1.62 4,-2.13 c9.83,-4.44 12.42,-5.27 17.48,-5.47 c0,0 2.52,9.1 0,15.45 s-7.5,16.89 -17.41,24.87 s-14.24,11.07 -15,11.72 s-2.82,2.31 1.37,4.42 s8.55,3.55 9.93,3.23 s6,-2.46 11.32,-7.73 s16.62,-18.55 23.26,-22.41 S587.44,151.28 590.41,141.37 "></path><path class="cls-12" d="M667.92,59.77s-15.38,7.16-23.15,11.37a42.22,42.22,0,0,0-9.12,6.71A174,174,0,0,0,610,81.2h-.55s7.68-11.66,21.4-17S661.36,57.46,667.92,59.77ZM706.11,100c-.69-.16-1.38-.29-2.06-.41A51.2,51.2,0,0,1,713.13,114c9.09,1,26.07,3.45,26.07,3.45C735.1,111.8,720.42,103.43,706.11,100Zm-27.7-24.4a44.74,44.74,0,0,0-11.57,4.73A85.09,85.09,0,0,1,686,86.51c1.33-.64,2.73-1.28,4.23-1.86C698.5,81.48,715.8,76,715.8,76,709.59,72.84,692.7,72.11,678.41,75.62Z"></path><path class="cls-13" d="M667.92,59.77s-15.38,7.16-23.15,11.37a42.22,42.22,0,0,0-9.12,6.71c-4.4.45-12.76.73-12.76.73S638.22,63.53,667.92,59.77ZM678,82.35c2.9,1,3.54,2.06,8,4.16,1.33-.64,2.73-1.28,4.23-1.86C698.5,81.48,715.8,76,715.8,76,700.62,74.12,677.06,82,678,82.35Zm38,25.94a55.34,55.34,0,0,0-1.48-5.74,79.85,79.85,0,0,0-8.39-2.53c-.69-.16-1.38-.29-2.06-.41A51.2,51.2,0,0,1,713.13,114c9.09,1,26.07,3.45,26.07,3.45a13.32,13.32,0,0,0-1.1-1.29C733.17,114.33,722.48,110.45,716,108.29Z"></path><path class="cls-2" d="M514.92,161.63a28,28,0,0,1-14.31-5.81c2.06-.71,4-1.55,5.71-2.29.92-.4,1.83-.82,2.73-1.25A20.92,20.92,0,0,0,514.92,161.63ZM522.47,145c-2.26,1.34-4.54,2.66-6.85,3.92A28.14,28.14,0,0,0,528,153.32,20.44,20.44,0,0,1,522.47,145Zm16.94-2.08a18.62,18.62,0,0,1-4.18-5.43c-1.68.89-3.31,1.86-4.94,2.84A28.66,28.66,0,0,0,539.41,142.91Z"></path><path class="cls-2" d="M545.1,113.32c2.83-2.31,4.11-6.37,4.34-10-1.23.27-2.46.55-3.66.93a36.28,36.28,0,0,0-8.81,4.11,31.42,31.42,0,0,0-5.47,4.42c-.31.32-.54.56-.73.78C535.21,115.48,541.21,116.49,545.1,113.32Z"></path><path class="cls-2" d="M490.54,140.92s1.39-6.55,4.39-6.52,2.5,2.6.11,3.93S492.86,137.76,490.54,140.92Z"></path><path class="cls-5" d="M488,146.61l1.26-6c.27-1.26,1.8-7.56,5.64-7.56H495c2.5,0,3.13,1.46,3.29,2.07.38,1.51-.65,3.24-2.56,4.31a5.14,5.14,0,0,1-2.45.74c-.35,0-.57,0-1.63,1.49Zm6.91-10.9c-.62,0-1.27.8-1.83,1.89a2.74,2.74,0,0,0,1.33-.41c.92-.52,1.28-1.16,1.29-1.38a3.14,3.14,0,0,0-.79-.1Z"></path><path class="cls-13" d="M643.08,131.86c4.86.49,8.83,1.76,11.11,4.21a20.08,20.08,0,0,1,4.35,7.72l9.36-.4C661.76,133.53,647.81,132.07,643.08,131.86Z"></path><path class="cls-13" d="M530.11,112.38l.44-.47a33.72,33.72,0,0,1,5.71-4.62,37.73,37.73,0,0,1,9.13-4.25c1.21-.38,2.45-.67,3.61-.93a43.25,43.25,0,0,0,14.08-12.73c6-8.82,24.31-28.76,44-36.25,2.45-1.7,3.81-1.76,5.68-2.9l0,0,.08,0C576.43,58.14,544,83.78,544,83.78a7.21,7.21,0,0,1,2.95,3.28c.62,1.85-.51,8.93-6.11,8.93a7.19,7.19,0,0,1-1.1-.09c-6.55-1-4.26-7.86-4.26-7.86s-6.22,2.62-11.13,11.14C520.34,106.07,527.31,110.82,530.11,112.38Z"></path><path class="cls-13" d="M530.91,137.81c.67-.39,1.34-.77,2-1.14,1.72-1,3-1.69,4.13-2.18,10.07-4.55,12.76-5.38,18-5.59l.5,0c.59-1.91,3.24-9.52,8.39-10.38a9.5,9.5,0,0,1,3.6-12.12,42.82,42.82,0,0,1,4.85-2.68c3.38-1.65,7.9-3.57,13-5.47,12.6-4.67,28.9-9.21,41-9.21h.76c20,.32,40.62-1.64,59.61,11.79,17.63,12.46,29.33,39.59,24.12,91.32l1,1.38c3.57-14.67,6.28-30,6.28-45a98.22,98.22,0,0,0-3.52-27c-7.53-26.38-29.83-40.64-68-42.72-1.76-.09-3.54-.14-5.34-.14-22.65,0-47.52,7.31-59.48,11.19l-6.08,1.9.53-1.52a53.48,53.48,0,0,1,5.89-12.54c3.8-5.71,18.88-19.41,22.69-22.19-14.14,4.28-34.82,26.65-39.63,35.39a28.12,28.12,0,0,1-5.72,6.71c-1.73,6.61-8.17,27.5-20.27,27.5-3.17,0-6.72-1.43-10.68-4.92,0,0-2.62,5.57-10.81,6.88s-25.22-.33-29.15,7.53-1,12.78-1,12.78,3.27-6.23,10.48-6.55l.56,0a27.6,27.6,0,0,1,5.92.92,32.82,32.82,0,0,0,7.39.92c4.48,0,10.35-1.06,18.88-4.77Zm-35.29,1.79a5.21,5.21,0,0,1-2.46.73c-.36,0-.56,0-1.63,1.49l-3.6,4.93,1.26-6a20.53,20.53,0,0,1,1.16-3.54q1.78-4,4.52-4h0c2.51,0,3.14,1.45,3.29,2.06a2.41,2.41,0,0,1,.08.65A4.57,4.57,0,0,1,495.62,139.6Z"></path><path class="cls-13" d="M698,162.89c.76-6.65.12-15.92-3.14-26-.17-.52.63-.72.44-1.24-4.17-11.69-13.42-23.08-29.87-27.06-.48-.12-.31-1.21-.8-1.31-28.5-6-73.28,9-77.93,10.5,5.95,5.76,5.12,19.71,4.41,22.08l10-2.23V119.81l12.26-3.9.84,4.73,3.43-4.55,20.25-1.3.55,5,3.72-4.46a62.23,62.23,0,0,1,22.19,2.79l-.55,5.85,4.36-4.18s15.14,9.38,18.48,23.12L679,148.45l0,0,7-.82a60.53,60.53,0,0,1,1.12,12l9.11,12.45a.81.81,0,0,0,.12-.28C697.09,168.05,697.76,165.13,698,162.89Z"></path><path class="cls-13" d="M589.23,141.12a45.65,45.65,0,0,0,1.39-5.71v0c0-.21,0-.45,0-.78.09-1.18.13-2.3.13-3.35,0-5.07-1-8.67-3.09-10.73a20.11,20.11,0,0,0-3.72-2.94l-7.66,2.51c10.36,17.19-1.3,27.49-12,34.44-4.06,2.63-15.4,18-24.57,25.22-6.3,4.95-11.52,5.73-14.17,5.73a10.63,10.63,0,0,1-1.3-.07l.32.17c4.37,2.2,7.82,3.14,8.86,3.14h.2c.91-.21,5.38-2.09,10.71-7.4,1.36-1.36,3.11-3.23,5.14-5.4,5.94-6.36,13.33-14.28,18.41-17.24,1.24-.72,2.67-1.47,4.19-2.25C578.7,153,587,148.69,589.23,141.12Z"></path><path class="cls-5" d="M740.26,116.65c-4.19-5.75-18.79-14.31-33.85-17.9-.51-.12-1-.21-1.51-.31a55.6,55.6,0,0,0-15.74-11.92c.54-.23,1.06-.45,1.57-.65,8.11-3.12,25.3-8.6,25.47-8.66l3-1-2.86-1.44c-6.36-3.2-23.26-4.14-38.29-.45A45.5,45.5,0,0,0,666.65,79a142,142,0,0,0-19.91-2.42c-2.46-.13-5-.16-7.48-.11a39.73,39.73,0,0,1,6.13-4.14C653,68.15,668.32,61,668.47,61l2.91-1.36-3-1.06c-6.71-2.35-23.59-1.12-38,4.47-13.16,5.1-20.79,15.69-21.89,17.29a270.75,270.75,0,0,0-29.27,8,59,59,0,0,1,5.14-9.26c8.24-12.37,22.17-22,29.7-26.58l9.29-5.23-9-.5h-.08c-10.19.74-37.66,4.45-72.63,22.93-12.66,6.69-28.33,17.22-31.09,29.4a14.36,14.36,0,0,0,1.94,11.44l-.6,2.9a33.76,33.76,0,0,1-10.43,8.24,39.94,39.94,0,0,1-15.47,3.83,10.79,10.79,0,0,0-6.65,2.67,8,8,0,0,0-2.63,6.25c.12,7.32,1.66,15,12.05,21.49l.37.23.37,0c3.13,1.84,6.84,1.29,9.73.6.12,0,.23-.06.35-.09l.3.24a29.34,29.34,0,0,0,15,6.08l4.53.52-3.56-2.84a19.4,19.4,0,0,1-5.23-8.14c1.54-.75,3-1.55,4.55-2.37a29.44,29.44,0,0,0,12.77,4.52l4.47.5-3.5-2.82a19.28,19.28,0,0,1-4.91-7.29c.94-.56,1.87-1.14,2.78-1.7s2-1.23,3-1.84l.05,0a29.82,29.82,0,0,0,9.54,2.71l4.47.5-3.51-2.82a17.91,17.91,0,0,1-3.51-4.43c.53-.27,1-.51,1.42-.7,9-4.08,11.74-5,15.92-5.3.54,2.47,1.66,8.94-.19,13.61-4.1,10.35-9.83,18.54-17,24.33-7.8,6.28-12.15,9.54-14,10.93-.52.39-.86.64-1,.79a3.68,3.68,0,0,0-1.68,3.09c.14,1.32,1.21,2.47,3.28,3.52,3,1.49,8.55,3.86,10.82,3.33,1.39-.32,6.25-2.41,11.95-8.08,1.39-1.38,3.15-3.27,5.2-5.46,5.5-5.9,13-14,17.78-16.74,1.19-.69,2.59-1.42,4.08-2.19,6.69-3.47,15.84-8.22,18.43-16.84.06-.17.1-.33.15-.49,21.63-6.21,38.73-9,49.65-8.27v.14s.89,0,2.26.07c4.47.55,7.69,1.8,9.51,3.76a18.7,18.7,0,0,1,3.94,6.89l2.67-.11a21.3,21.3,0,0,0-4.35-8.16,24.19,24.19,0,0,1,8.87,5.43,17.84,17.84,0,0,1,2,2.44l3-.13a20.07,20.07,0,0,0-3.17-4.17,23.55,23.55,0,0,0-3.54-2.89h0l3.81-26c17.33,4.76,24.59,17.71,27.44,25.43a2.22,2.22,0,0,0-.33.69l-15.9,10.39,1.54,2.11,14.93-9.75c2.4,8.18,3.34,16.7,2.55,23.65-.17,1.43-.52,3.21-.93,5.27-.16.85-.34,1.78-.53,2.75l1.79,2.44a1.88,1.88,0,0,0,.62-1.11c.24-1.29.48-2.48.69-3.57.42-2.12.78-4,1-5.48.52-4.54.8-13.93-3.06-26.11a1.79,1.79,0,0,0,.3-1.71c-3-8.28-10.82-22.83-30.28-27.76a1.84,1.84,0,0,0-1.36-1.45c-26.12-5.49-63.69,6.15-76,10-1.27.4-2.27.7-2.94.9l-2.49.71,2,1.58c3.73,2.89,5.52,8.57,5,16v.05a45.25,45.25,0,0,1-1.4,5.78c-2.27,7.57-10.52,11.84-17.14,15.28-1.51.79-2.94,1.53-4.18,2.25-5.08,3-12.46,10.86-18.39,17.22-2,2.16-3.77,4-5.13,5.39-5.32,5.3-9.79,7.17-10.69,7.39-.72.16-4.34-.76-9-3.13-1.75-.88-1.85-1.44-1.85-1.45s0-.24.7-.78l1-.74c1.87-1.4,6.25-4.67,14.08-11C546,165.36,552,156.81,556.3,146c2.64-6.68.15-15.89,0-16.28l-.27-1-1,0c-5.22.21-7.91,1-18,5.59-1.08.49-2.4,1.18-4.13,2.17-2.59,1.43-5.16,3-7.63,4.53-1.83,1.13-3.71,2.29-5.58,3.37l-.14.08c-6.7,3.87-13.62,7.87-21,9.63-2.42.57-5.5,1.05-7.83-.34a2.45,2.45,0,0,0-.93-.32c-9.53-6.09-10.44-13.06-10.53-19.13a5.3,5.3,0,0,1,1.54-4.05,8.63,8.63,0,0,1,4.82-2.23A41.47,41.47,0,0,0,502.5,124,36.5,36.5,0,0,0,514,114.87l.22-.25.45-2.18a21.46,21.46,0,0,0,11,3.54,13.75,13.75,0,0,0,5.2-1,22,22,0,0,0,7.92,1.68,11,11,0,0,0,7.14-2.33c2.63-2.14,4.33-5.85,4.75-10.23a45.26,45.26,0,0,0,14.55-13.31c5.18-7.68,21-26.64,39.31-35.15-7.45,5.34-16.37,12.91-22.4,22A55.43,55.43,0,0,0,575.7,90l-.89,2.55,2.56-.89a265.43,265.43,0,0,1,34.19-9.38l.34-.07c1.24-.24,2.48-.48,3.74-.7l1.09-.2,1.46-.24,1.66-.27,1.1-.16c.88-.13,1.75-.26,2.61-.37l.17,0c4.17-.55,8.17-.92,12-1.11l.49,0h0a102.8,102.8,0,0,1,10.39,0,139.51,139.51,0,0,1,18.63,2.19l1.36.28a84.5,84.5,0,0,1,18.9,6.06L686,88h0a55,55,0,0,1,15.41,10.75l1.61,1.79a50.66,50.66,0,0,1,8.85,14l.3.71h0a58.71,58.71,0,0,1,2.15,6.2c6.51,22.77,3,48.19-2.74,71.84l2,2.76c6.14-24.58,10.11-51.27,3.24-75.32q-.77-2.65-1.71-5.14c9.27,1.11,23.63,3.16,23.79,3.19l3.06.44Zm-76.42-8.19a2.65,2.65,0,0,0,.27.62l-.1,0-3.77,25.76c-6.74-3.56-14.37-4.19-17.46-4.29-1-.09-1.95-.15-3-.19.2-4.21-1.9-19.85-2.26-22.53C646.68,106.89,655.81,106.86,663.84,108.46Zm-28.9-.37c.74,5.41,2.47,19,2.25,22.23a124.2,124.2,0,0,0-20.65,2.3A174.74,174.74,0,0,0,613.11,112,200.32,200.32,0,0,1,634.94,108.09Zm-46.09,10.64.82-.25c4.34-1.35,11.87-3.67,20.9-5.87A174.67,174.67,0,0,1,614,133.12c-7.64,1.52-15.13,3.44-21.35,5.19.24-1,.42-1.91.55-2.76l0-.22C593.63,128.18,592.1,122.4,588.85,118.73Zm-54.12,20.51c.38.63.77,1.2,1.14,1.7a26.8,26.8,0,0,1-2.68-.82C533.7,139.82,534.21,139.52,534.73,139.24Zm-12.89,7.64a23.92,23.92,0,0,0,2.6,4.48,26.5,26.5,0,0,1-6.2-2.41C519.36,148.32,520.55,147.64,521.84,146.88Zm-15,7.85,1.46-.66a24.29,24.29,0,0,0,3.07,5.59,26.54,26.54,0,0,1-8-3.47C504.55,155.73,505.69,155.23,506.85,154.73Zm37.42-42.42c-3.36,2.74-8.3,1.69-11.19.71a30.26,30.26,0,0,1,4.59-3.6,35,35,0,0,1,8.5-4c.58-.18,1.18-.35,1.77-.49A11.94,11.94,0,0,1,544.27,112.31Zm18.78-23A43.05,43.05,0,0,1,549,102c-1.15.26-2.38.54-3.59.92a38.24,38.24,0,0,0-9.12,4.26,32.65,32.65,0,0,0-5.7,4.61c-.28.28-.49.51-.67.72-6.82,2.71-14.08-2.45-15.14-3.24A11.74,11.74,0,0,1,513,99.66c1.4-6.19,7.7-16,29.77-27.67C577.1,53.86,604,50.13,614.19,49.38l-.73.41v0C590.47,55,569.27,80.11,563.05,89.33Zm72-12.75q-3.93.21-7.88.65l-.87.1-1.59.19-1.39.18-1,.13q-4.89.67-10,1.66c3-3.63,9.53-10.41,18.91-14A83.55,83.55,0,0,1,659.38,60a37.65,37.65,0,0,1,4.46.23c-5,2.38-14.26,6.81-19.69,9.75A43.13,43.13,0,0,0,635.09,76.58Zm35.54,3.24a42,42,0,0,1,8.1-2.93c12-2.94,25.52-2.83,33-1-5.56,1.81-16.05,5.27-21.91,7.52-1.16.45-2.35,1-3.7,1.6A84.94,84.94,0,0,0,670.63,79.82Zm43.47,32.94a53.23,53.23,0,0,0-6.45-11c11.47,3.06,22.61,9,28.05,13.84C730.4,114.86,720.56,113.51,714.1,112.76Z"></path><path class="cls-3" d="M738.28,190.67l.35,0,6.19-40.21c-27.11-25.86-40.68-20.23-45.21-13.85l-3.85.43a35.43,35.43,0,0,1-11.82-7.81,40.52,40.52,0,0,1-8.74-14.17c-.15-.72-3.48-7.21-9.65-5.09s-12.94,5.45-15.87,17.18a1.2,1.2,0,0,1,.06.68c-.68,3,.73,6,2.26,8.53,4.09,6.72,10.22,12.21,16,17.43,3.78,3.4,7.84,6.6,11.57,10.11,1.32,1.19,2.44,2.26,3.27,3.18,7.27,8,8.85,10.17,10.61,14.93,0,0-7.88,5.21-14.7,4.78s-18.38-1.92-29-8.88-14.92-10.12-15.8-10.69-3.06-2-3.78,2.67-.73,9.23,0,10.45,4.2,5,10.85,8.37,22.77,10.08,28.5,15.19,13.81,15.43,24.15,15.2l1.5-.07a271.65,271.65,0,0,1,14.92,24.82l20,2.42,8.51-55.23Z"></path><path class="cls-2" d="M651.07,153.58a28,28,0,0,1,1.1-15.4c1.31,1.74,2.72,3.33,4,4.72.66.75,1.34,1.48,2,2.21A20.84,20.84,0,0,0,651.07,153.58Zm18.16,2c-2-1.74-3.93-3.5-5.85-5.3a28.18,28.18,0,0,0-.37,13.11A20.34,20.34,0,0,1,669.23,155.62Zm7.21,15.47a18.62,18.62,0,0,1,3.87-5.66c-1.36-1.32-2.79-2.57-4.22-3.82A28.64,28.64,0,0,0,676.44,171.09Z"></path><path class="cls-2" d="M706.34,167.35c3.08,2,7.33,2,10.89,1-.63-1.09-1.28-2.17-2-3.2a36.61,36.61,0,0,0-6.62-7.11,32.06,32.06,0,0,0-5.9-3.83c-.4-.2-.7-.34-1-.45C701.23,158.62,702.12,164.63,706.34,167.35Z"></path><path class="cls-2" d="M663.23,124s6.66-.7,7.56,2.16-1.7,3.18-3.7,1.32S667,125.22,663.23,124Z"></path><path class="cls-5" d="M663.09,122.69l-6.06.64,5.79,1.91c1.71.56,1.79.77,1.92,1.09a5.87,5.87,0,0,0,4.84,3.62,2.79,2.79,0,0,0,1.51-.42c.53-.33,1.69-1.37.95-3.77C670.88,122.06,664.38,122.55,663.09,122.69Zm4.89,3.83a2.61,2.61,0,0,1-.8-1.13c1.21.19,2.18.57,2.36,1.15a3.09,3.09,0,0,1,.14.78A2.34,2.34,0,0,1,668,126.52Z"></path><path class="cls-4" d="M727.4,150.37s-4.41-5.11-14-7.15c-7.78-1.65-10.15,6.44-10.76,9.58l.58.28a33.53,33.53,0,0,1,6.15,4,37.8,37.8,0,0,1,6.87,7.38c.74,1,1.4,2.11,2,3.14a43.18,43.18,0,0,0,16.45,9.46c1.6.46,3.56,1.12,5.76,2l2.38-15.45c-5.28-4.15-8.72-6.44-8.72-6.44a7.23,7.23,0,0,1-2.2,3.82c-1.57,1.16-8.65,2.27-10.38-3.05a6.7,6.7,0,0,1-.26-1.07C720.15,150.31,727.4,150.37,727.4,150.37Z"></path><path class="cls-4" d="M631.1,179.73c.48.8,3.64,4.47,10.34,7.9,1.71.88,4,2,6.73,3.22,7.88,3.68,17.69,8.26,22.08,12.18,1.07,1,2.22,2.09,3.44,3.29,5.32,5.24,11.94,11.77,19.85,11.59a43.86,43.86,0,0,0,5.86-.44h0l.75-.2c1.15-.28,2.23-.58,3.23-.91,4.82-1.57,7.93-3.67,9.25-6.26a20.81,20.81,0,0,0,1.65-4.44l-4.77-6.51c-13.14,15.16-26.54,7.26-36.47-.81-3.75-3.05-21.89-9.08-31.57-15.57-6.66-4.47-9-9.19-9.83-11.71-.17-.52-.27-.94-.34-1.25l-.06.35c-.74,4.84-.57,8.4-.25,9.4A.51.51,0,0,0,631.1,179.73Z"></path><path class="cls-4" d="M656.24,123.21s6.93,1.19,9.47,7.94c.07.18.13.36.19.53a28.17,28.17,0,0,1,1,5.92,33.34,33.34,0,0,0,1.41,7.31c1.39,4.26,4.21,9.52,10.38,16.48l0,0c.58.52,1.15,1,1.71,1.57,1.48,1.34,2.55,2.38,3.35,3.26,7.44,8.17,9.07,10.47,10.88,15.39l.18.47c2,0,10.05.14,12.46,4.77a9.5,9.5,0,0,1,12.64-.32,43,43,0,0,1,4,3.78c2.61,2.71,5.83,6.42,9.23,10.71,1.06,1.35,2.14,2.75,3.22,4.2l2-12.64-2-2.76,1.61,0,.77,0,1.32-8.56a44,44,0,0,0-6.13-1.76,28.38,28.38,0,0,1-8.15-3.37c-6.82.39-28.68.72-32.42-10.79-1-3-.71-6.83,1.38-11.67,0,0-6.11-.77-9.88-8.16s-7.49-24.08-16.18-25.39S656.24,123.21,656.24,123.21Zm15.66,2.51v0c.75,2.4-.41,3.44-.95,3.78a2.46,2.46,0,0,1-.59.28,4.59,4.59,0,0,1-4.31-1.38,5.23,5.23,0,0,1-1.46-2.11c-.13-.34-.21-.53-1.92-1.1l-5.8-1.9,6.07-.64a20,20,0,0,1,3.72,0C669.59,123,671.34,124,671.9,125.72Z"></path><path class="cls-4" d="M731.89,234.38A282.36,282.36,0,0,0,715,208.32c-3.64,7.43-17.16,11-19.63,11l5.22,8.85,17-5.51,7.5,10.45-4.24,2.26,5.39,1.86,3.57,9,.35,0Z"></path><path class="cls-5" d="M735.24,189.2l1.63,2.16c.42.56.89,1.17,1.37,1.83l.6-3.89-.9,0Z"></path><path class="cls-5" d="M640.42,189.9c1.75.89,4.09,2,6.8,3.25,7.31,3.42,17.32,8.09,21.41,11.75,1,.91,2.15,2,3.34,3.19,5.37,5.29,12.68,12.51,21.72,12.33h.52a271.06,271.06,0,0,1,14.2,23.26l3.13.37-1.48-2.78a173.78,173.78,0,0,0,18.55-9.63c1,1.62,2,3.29,2.93,5l.64-4.12c-5.9-10-11.71-18.27-14.84-22.7-.77-1.08-1.37-1.94-1.76-2.52l-1.45-2.14-.87,2.43c-1.59,4.45-6.44,7.91-13.65,9.75h0a44.18,44.18,0,0,1-5.93.46c-7.9.2-14.51-6.34-19.83-11.58-1.21-1.2-2.36-2.32-3.43-3.28-4.38-3.91-14.18-8.49-22-12.17-2.69-1.25-5-2.34-6.72-3.21-6.69-3.43-9.85-7.1-10.33-7.89-.37-.63-.63-4.36.18-9.57.29-1.93.8-2.21.8-2.21s.24-.05,1,.43l1,.7c1.91,1.35,6.38,4.5,14.79,10,8.12,5.3,18.1,8.36,29.67,9.08,7.15.44,15.16-4.76,15.5-5l.87-.57-.36-1c-1.81-4.91-3.44-7.2-10.87-15.36-.8-.89-1.87-1.92-3.34-3.26-2.16-2-4.45-4-6.67-5.86-1.64-1.39-3.32-2.82-4.93-4.26l-.12-.12c-5.75-5.17-11.69-10.51-15.66-17-1.29-2.13-2.7-4.91-2.1-7.56a2.36,2.36,0,0,0,0-1c2.85-10.93,9.2-14,14.94-15.92a5.32,5.32,0,0,1,4.33.21,8.64,8.64,0,0,1,3.61,3.9,41.27,41.27,0,0,0,9.08,14.8,36.6,36.6,0,0,0,12.27,8.12l.31.14,2.21-.25c-.89,3.47-2,10.74,2.58,16.17-.22,3.11-.14,10.65,5.27,14.13h0a12.91,12.91,0,0,0,7,1.85,19.52,19.52,0,0,0,4.21-.49A45.23,45.23,0,0,0,734,179.52c1.61.47,3.67,1.15,6.06,2l.4-2.63c-2.24-.83-4.2-1.47-5.74-1.91a43.06,43.06,0,0,1-16.44-9.46c-.6-1-1.25-2.1-2-3.13a38.26,38.26,0,0,0-6.87-7.36,32.89,32.89,0,0,0-6.14-4c-.36-.18-.64-.31-.89-.42-4.68-5.63-2-14.11-1.61-15.39a11.69,11.69,0,0,1,8.65-4.63c6.28-.58,17.46,2.34,35.16,19.42l.49-3.16C734.9,139.32,721,129,709.18,130a14.32,14.32,0,0,0-10.28,5.38l-2.94.32a33.78,33.78,0,0,1-11.06-7.37,40,40,0,0,1-8.42-13.53,10.79,10.79,0,0,0-4.6-5.5,8,8,0,0,0-6.75-.57c-6.93,2.38-13.75,6.21-16.72,18.1l-.11.43.15.34c-.78,3.54.89,6.9,2.43,9.44l.2.3-.13.37a29.34,29.34,0,0,0-1.17,16.11l.91,4.41,1.6-4.21a19.8,19.8,0,0,1,6.12-7.48c1.19,1.23,2.42,2.42,3.67,3.59a29.36,29.36,0,0,0-.35,13.55l.9,4.4,1.6-4.2a19.36,19.36,0,0,1,5.41-6.92l2.48,2.11,2.68,2.3v.05a30.07,30.07,0,0,0,.37,9.91l.9,4.41,1.61-4.21a17.56,17.56,0,0,1,3.13-4.7c.42.41.79.79,1.1,1.13,6.66,7.32,8.41,9.61,10,13.5-2.18,1.28-8,4.34-13,4-11.11-.7-20.66-3.61-28.4-8.66-8.37-5.47-12.81-8.61-14.71-10l-1.08-.75a3.67,3.67,0,0,0-3.46-.63c-1.21.54-2,1.91-2.33,4.2-.5,3.27-1,9.33.17,11.32C629.78,182.26,633.26,186.23,640.42,189.9Zm59.63,30,.21,0c6.94-1.77,12-5,14.45-9.23l.49.69c2.63,3.72,7.17,10.16,12,18.07A174.37,174.37,0,0,1,708.79,239c-3.81-6.81-7.95-13.33-11.54-18.71C698.27,220.17,699.2,220.06,700.05,219.92Zm2.87-64.09a31.34,31.34,0,0,1,4.84,3.26,35.09,35.09,0,0,1,6.39,6.85c.35.5.69,1,1,1.53a11.84,11.84,0,0,1-8.11-1.22h0C703.41,163.91,702.87,158.88,702.92,155.83Zm-51.08-6.23a26.48,26.48,0,0,1,.84-8.68c.89,1.08,1.76,2.06,2.46,2.85.35.4.71.79,1.07,1.19A24.59,24.59,0,0,0,651.84,149.6Zm11.94,9.86a26.79,26.79,0,0,1,.37-6.64c1,.87,2,1.78,3.08,2.78A24.34,24.34,0,0,0,663.78,159.46Zm13.44,7.65a26.2,26.2,0,0,1,0-2.8l1.31,1.19A19.69,19.69,0,0,0,677.22,167.11Z"></path><path class="cls-14" d="M390.84,636.79c-10.53-2.26-12.45-4.63-12.45-8.5v-.14c0-4,3.86-6.88,9.38-6.88a19.37,19.37,0,0,1,12,4.07A3.6,3.6,0,0,0,402,626a3.65,3.65,0,0,0,3.65-3.65,3.84,3.84,0,0,0-1.61-3,26,26,0,0,0-16.12-5c-9.87,0-17,6-17,14.31v.14c0,9.39,6.86,12.81,17.17,15.05,10.05,2.12,11.89,4.46,11.89,8.29v.14c0,4.36-4,7.29-9.87,7.29a21.14,21.14,0,0,1-14.69-5.49,3.45,3.45,0,0,0-2.38-.92,3.64,3.64,0,0,0-3.65,3.72,3.49,3.49,0,0,0,1.45,2.9,29.63,29.63,0,0,0,19.06,6.74c10.4,0,17.66-6.08,17.66-14.8v-.14C407.52,643.76,402.53,639.34,390.84,636.79Z"></path><path class="cls-14" d="M489.71,614.68a3.78,3.78,0,0,0-3.78,3.78v25.93c0,9.73-4.87,15.09-13.71,15.09s-13.91-5.63-13.91-15.44V618.46a3.75,3.75,0,1,0-7.5,0v25.93c0,13.68,8.15,22.18,21.27,22.18,13.37,0,21.35-8.45,21.35-22.6V618.46A3.8,3.8,0,0,0,489.71,614.68Z"></path><path class="cls-14" d="M584.27,614.81h-.63a4,4,0,0,0-3.41,1.91l-16.59,24.95-16.59-24.95a4,4,0,0,0-3.41-1.91H543a3.77,3.77,0,0,0-3.72,3.72v43.9a3.68,3.68,0,1,0,7.36,0V629.31l13.72,20.17a3.76,3.76,0,0,0,3.19,1.83,3.69,3.69,0,0,0,3.13-1.83l13.78-20.25v33.13a3.84,3.84,0,0,0,3.79,3.79,3.8,3.8,0,0,0,3.72-3.79V618.53A3.77,3.77,0,0,0,584.27,614.81Z"></path><path class="cls-14" d="M679.59,614.81H679a4,4,0,0,0-3.41,1.91L659,641.67l-16.59-24.95a4,4,0,0,0-3.41-1.91h-.62a3.77,3.77,0,0,0-3.72,3.72v43.9a3.68,3.68,0,1,0,7.36,0V629.31l13.72,20.17a3.78,3.78,0,0,0,3.19,1.83,3.68,3.68,0,0,0,3.13-1.83l13.78-20.25v33.13a3.84,3.84,0,0,0,3.79,3.79,3.8,3.8,0,0,0,3.72-3.79V618.53A3.77,3.77,0,0,0,679.59,614.81Z"></path><path class="cls-14" d="M734.15,614.68a3.8,3.8,0,0,0-3.72,3.78v43.9a3.75,3.75,0,1,0,7.5,0v-43.9A3.78,3.78,0,0,0,734.15,614.68Z"></path><path class="cls-14" d="M818.67,615H784.8a3.63,3.63,0,0,0-3.58,3.58,3.55,3.55,0,0,0,3.58,3.51H798v40.25a3.79,3.79,0,1,0,7.57,0V622.11h13.15a3.55,3.55,0,0,0,3.58-3.51A3.63,3.63,0,0,0,818.67,615Z"></path></g></svg></svg>